<svg id="Group_2243" data-name="Group 2243" xmlns="http://www.w3.org/2000/svg" xmlns:xlink="http://www.w3.org/1999/xlink" width="189.616" height="227.535" viewBox="0 0 189.616 227.535">
  <defs>
    <linearGradient id="linear-gradient" x1="0.5" x2="0.5" y2="1" gradientUnits="objectBoundingBox">
      <stop offset="0" stop-color="#fff"/>
      <stop offset="1" stop-color="#fff"/>
    </linearGradient>
    <clipPath id="clip-path">
      <rect id="Rectangle_260" data-name="Rectangle 260" width="189.616" height="227.535" fill="url(#linear-gradient)"/>
    </clipPath>
  </defs>
  <g id="Group_2178" data-name="Group 2178" transform="translate(0 0)" clip-path="url(#clip-path)">
    <path id="Path_2741" data-name="Path 2741" d="M90.106,189.608v-1.347q0-26,.017-51.994a2.017,2.017,0,0,0-.9-1.842Q71.784,121.4,54.372,108.338a5.112,5.112,0,0,1-2.218-4.44c.028-9.037-.006-18.071.037-27.108a1.626,1.626,0,0,0-1.271-1.878A19.123,19.123,0,0,1,37.958,56.055c.284-9.206,8.022-17.368,17.1-18.043,9.914-.737,18.681,5.761,20.436,15.147a18.989,18.989,0,0,1-13.077,21.99c-.531.172-.765.385-.765.987q.03,12.556.011,25.109a1.143,1.143,0,0,0,.464,1.043Q75.91,112.6,89.679,122.928a1.065,1.065,0,0,0,.306.093,2.278,2.278,0,0,0,.112-1.209q.013-41.551.025-83.1a1.427,1.427,0,0,0-1.13-1.65,18.9,18.9,0,1,1,11.6.079,1.25,1.25,0,0,0-1.063,1.451q.034,51.163.02,102.321v.964c.484.163.689-.172.928-.351q13.378-10.017,26.753-20.039a1.72,1.72,0,0,0,.773-1.566q-.034-12.277.006-24.552A1.233,1.233,0,0,0,127,93.976a19.247,19.247,0,0,1-13.209-18.594A18.979,18.979,0,1,1,138.5,94.024c-.844.256-1.038.627-1.035,1.459.034,9.071,0,18.144.039,27.217a5.381,5.381,0,0,1-2.362,4.71c-11.579,8.626-23.109,17.312-34.674,25.952a2.121,2.121,0,0,0-.942,1.932q.038,28.051.025,56.1a1.973,1.973,0,0,0,.191,1.291c1.918-1.544,3.813-3.059,5.7-4.583q29.818-24.065,59.645-48.12a1.991,1.991,0,0,0,.86-1.757q-.067-5.386,0-10.774a1.132,1.132,0,0,0-.95-1.3,19.21,19.21,0,0,1-13.283-18.763c.2-9.324,7.9-17.559,17.1-18.27a18.984,18.984,0,0,1,7.881,36.89,1.641,1.641,0,0,0-1.291,1.881c.062,4.111-.022,8.221.042,12.332a6.205,6.205,0,0,1-2.477,5.193q-18.4,14.955-36.805,29.908Q117.29,210.661,98.409,226a5.452,5.452,0,0,1-4.6,1.448A4.243,4.243,0,0,1,90.14,223.2c-.067-2.7-.031-5.407-.034-8.109,0-4.15-.028-8.3.022-12.445a2.117,2.117,0,0,0-.984-1.918Q52.794,173.5,16.454,146.26a5.127,5.127,0,0,1-2.235-4.44c.02-4.333-.022-8.666.031-13a1.492,1.492,0,0,0-1.187-1.735A18.981,18.981,0,0,1,15.3,90.436a19.024,19.024,0,0,1,9.267,36.842c-.655.2-.869.45-.863,1.127.034,3.481.042,6.962,0,10.443a1.8,1.8,0,0,0,.849,1.631q31.244,23.4,62.468,46.829c.945.709,1.892,1.411,3.084,2.3M142.2,75.846a9.466,9.466,0,0,0-18.931.006,9.466,9.466,0,1,0,18.931-.006M28.437,109.01A9.464,9.464,0,1,0,19,118.486a9.47,9.47,0,0,0,9.436-9.475M47.453,56.836A9.464,9.464,0,1,0,56.962,47.4a9.5,9.5,0,0,0-9.509,9.439M161.22,128.023a9.464,9.464,0,1,0,9.425-9.52,9.512,9.512,0,0,0-9.425,9.52M94.836,9.512a9.464,9.464,0,1,0,9.481,9.461,9.512,9.512,0,0,0-9.481-9.461" transform="translate(0 0)" fill="url(#linear-gradient)"/>
  </g>
</svg>
