<svg xmlns="http://www.w3.org/2000/svg" xmlns:xlink="http://www.w3.org/1999/xlink" width="170.998" height="227.727" viewBox="0 0 170.998 227.727">
  <defs>
    <linearGradient id="linear-gradient" x1="0.5" x2="0.5" y2="1" gradientUnits="objectBoundingBox">
      <stop offset="0" stop-color="#fff"/>
      <stop offset="1" stop-color="#fff"/>
    </linearGradient>
  </defs>
  <path id="Union_27" data-name="Union 27" d="M162.139,226.705a1.8,1.8,0,0,1-1.933-1.921c-.036-.554-.026-1.112-.026-1.668q.006-32.665.013-65.33V156.3c-2.143,1.22-4.133,2.346-6.115,3.484q-18.108,10.4-36.2,20.817c-.99.572-1.222.4-1.224-.658-.015-5.518-.056-11.035-.079-16.553-.01-2.341,0-4.682,0-7.259-2.278,1.3-4.38,2.5-6.475,3.705Q93.112,169.619,76.128,179.4c-2,1.151-2.94.591-2.94-1.73,0-7.058,0-14.116,0-21.138-.38-.3-.606,0-.837.138q-19.583,11.3-39.158,22.613c-.074.044-.148.087-.219.132-.783.5-1.552,1.255-2.559.746-1.147-.579-.867-1.734-.867-2.74q0-38.184.029-76.368c0-1.226-.374-1.445-1.5-1.435-3.688.035-7.375.027-11.063.019q-2.812-.006-5.622-.006c-.186,0-.351,0-.5,0-1.263-.022-1.111-.044-1.111,1.674q0,60.131.012,120.262c0,1.155.006,2.309-.01,3.465a1.493,1.493,0,0,1-1.655,1.675c-2.011.007-4.022.035-6.032.008a1.906,1.906,0,0,1-2.075-2.08c-.023-.427-.015-.855-.015-1.283Q0,158.6,0,93.847c0-.428,0-.855,0-1.283.039-1.992.717-2.7,2.709-2.7q15.98-.008,31.96.014c.941,0,1.882-.014,2.823,0,1.293.02,1.793.508,1.813,1.769.018,1.069.019,2.139.019,3.207q0,33.885,0,67.769v1.816l43.6-25.188v24.669a2.626,2.626,0,0,0,1.549-.625q19.932-11.462,39.859-22.934c1.314-.755,1.611-.6,1.934.868a6.049,6.049,0,0,1,.072,1.277q.006,10.267,0,20.536v1.336c1.073-.6,1.995-1.1,2.9-1.619q18.774-10.782,37.543-21.568c.776-.445,1.613-1.142,2.48-.671.958.52.688,1.646.689,2.571q.012,40.044.021,80.09a11.113,11.113,0,0,1-.036,1.665,1.923,1.923,0,0,1-2.037,1.874c-1.1,0-2.193.01-3.29.01C163.8,226.728,162.967,226.723,162.139,226.705ZM87.5,203.142c-1.739-.019-2.274-.583-2.288-2.333-.015-1.71-.018-3.421,0-5.132.018-1.669.609-2.3,2.349-2.33,1.515-.025,3.03-.01,4.545,0,.964.01,1.929.019,2.894.019,2.651,0,5.3-.041,7.954-.036,2.014,0,2.6.608,2.607,2.584,0,1.711.023,3.421,0,5.132-.021,1.412-.606,2.053-2.024,2.075-2.736.044-5.473.013-8.21.013v.009c-1.565,0-3.131.007-4.7.007Q89.061,203.156,87.5,203.142Zm43.443,0c-1.585-.016-2.131-.59-2.152-2.2-.023-1.711-.018-3.422,0-5.132.023-1.864.645-2.463,2.622-2.466,3.891-.006,7.783.027,11.674.035.525,0,1.051-.01,1.576-.02.758-.015,1.515-.03,2.271-.01,1.642.043,2.239.672,2.248,2.275q.013,2.63,0,5.26c-.01,1.683-.549,2.25-2.211,2.262-1.8.012-3.594.01-5.39.008q-1.281,0-2.56,0c-1.6,0-3.2.009-4.807.009Q132.578,203.154,130.939,203.139Zm-87.331,0c-1.425-.017-1.977-.607-2-2.066-.028-1.838-.028-3.678-.013-5.517.012-1.492.55-2.1,2.073-2.184.809-.046,1.623-.029,2.436-.013.446.01.892.019,1.339.018,3.934-.01,7.868-.037,11.8-.039,2.149,0,2.7.583,2.7,2.754,0,1.625.014,3.25-.025,4.874-.04,1.682-.558,2.171-2.275,2.181-2.651.016-5.3,0-7.95,0q-1.238,0-2.475,0-1.109,0-2.217,0Q45.3,203.153,43.608,203.136ZM19.5,81.13c-2.345-1.735-2.694-4.527-.829-7.139A83.406,83.406,0,0,1,33.4,58.687a32.058,32.058,0,0,1,2.8-2.243c.783-.517.822-.955.442-1.768a39.421,39.421,0,0,1-3.8-14.544c-.783-13.67,4.594-24.226,16.006-31.755A51.268,51.268,0,0,1,73.681.289c3.245-.25,6.494-.314,9.747-.281a223.655,223.655,0,0,1,29.581,2.953q10.126,1.616,20.109,3.979c1.981.467,2.51,1.443,1.68,3.254-7.51,16.388-15.929,32.261-26.59,46.861-5.03,6.889-10.927,12.824-18.635,16.716-16.061,8.108-33.489,5.7-46.142-8.7-.819-.933-1.285-.971-2.212-.2A87.63,87.63,0,0,0,26.482,79.811a5.225,5.225,0,0,1-4.17,2.272A4.7,4.7,0,0,1,19.5,81.13ZM70.374,46.246a223.025,223.025,0,0,0-19.38,11.518c-.52.349-.624.556-.171,1.04,7.283,7.769,16.014,11.387,26.678,9.077,7.783-1.685,14.012-6.065,19.065-12.044,10.366-12.27,17.856-26.345,25.034-40.6.3-.6.161-.738-.5-.872-4.562-.933-9.155-1.671-13.759-2.357A169.176,169.176,0,0,0,77.455,9.825a46.5,46.5,0,0,0-19.437,4.561C44.076,21.242,39,34.432,44.727,48.866c.343.867.608.969,1.407.432q3.722-2.5,7.561-4.819a2.409,2.409,0,0,0,1.3-2.224c.268-4.95.591-9.9,1.025-14.837a4.828,4.828,0,0,1,7.373-3.874c2.156,1.289,2.515,3.392,2.3,5.7-.261,2.844-.478,5.692-.73,8.731,1.531-.767,2.9-1.441,4.254-2.133A272.249,272.249,0,0,1,94.859,24.208a4.968,4.968,0,0,1,5.907,1.419,4.916,4.916,0,0,1-2.319,7.665c-2.965,1.21-5.924,2.432-8.865,3.7-2.372,1.025-4.71,2.128-7.033,3.182.1.474.407.491.612.591,1.765.855,3.562,1.65,5.313,2.534a4.809,4.809,0,0,1,2.867,4.85c-.5,3.675-3.763,5.444-7.254,3.856-4.077-1.854-8.121-3.783-12.173-5.69a2.049,2.049,0,0,0-.874-.253A1.394,1.394,0,0,0,70.374,46.246Z" transform="translate(0.5 0.5)" stroke="rgba(0,0,0,0)" stroke-width="1" fill="url(#linear-gradient)"/>
</svg>
