<svg xmlns="http://www.w3.org/2000/svg" width="802.26" height="317.228" viewBox="0 0 802.26 317.228">
  <g id="Group_2161" data-name="Group 2161" transform="translate(-853 -279)">
    <path id="Path_2556" data-name="Path 2556" d="M1392,543.537s13.484-26.274,44.6-25.916,45.969,27.7,45.969,27.7Z" transform="translate(-28.804 -12.752)" fill="#d39d5f"/>
    <path id="Path_2557" data-name="Path 2557" d="M908.6,510.352,937,559.756l75.145-1.691-27.4-48.825Z" transform="translate(-2.971 -12.304)" fill="#76beeb"/>
    <g id="Group_2041" data-name="Group 2041" transform="translate(905.486 438.662)">
      <g id="Group_2003" data-name="Group 2003" transform="translate(229.054 0)">
        <path id="Path_2558" data-name="Path 2558" d="M1185.114,492.927a1.135,1.135,0,0,1-.9-.436l-33.541-42.981a1.135,1.135,0,0,1,1.79-1.4l33.542,42.981a1.135,1.135,0,0,1-.894,1.833Z" transform="translate(-1150.435 -447.676)" fill="#003f6a"/>
      </g>
      <g id="Group_2040" data-name="Group 2040" transform="translate(0 0)">
        <g id="Group_2014" data-name="Group 2014" transform="translate(0 57.694)">
          <g id="Group_2011" data-name="Group 2011">
            <g id="Group_2004" data-name="Group 2004" transform="translate(0 0.001)">
              <path id="Path_2559" data-name="Path 2559" d="M1011.143,559.723H936.988a1.134,1.134,0,0,1-.99-.579l-27.4-48.825a1.135,1.135,0,0,1,.99-1.69H983.74a1.137,1.137,0,0,1,.99.579l27.4,48.825a1.135,1.135,0,0,1-.99,1.69Zm-73.491-2.271H1009.2L983.075,510.9H911.524Z" transform="translate(-908.449 -508.628)" fill="#003f6a"/>
            </g>
            <g id="Group_2005" data-name="Group 2005" transform="translate(38.083)">
              <path id="Path_2560" data-name="Path 2560" d="M977.219,559.724a1.135,1.135,0,0,1-.991-.58l-27.4-48.825a1.136,1.136,0,0,1,1.98-1.112l27.4,48.826a1.136,1.136,0,0,1-.989,1.691Z" transform="translate(-948.681 -508.627)" fill="#003f6a"/>
            </g>
            <g id="Group_2006" data-name="Group 2006" transform="translate(20.453 0.568)">
              <path id="Path_2561" data-name="Path 2561" d="M958.025,559.188a.567.567,0,0,1-.5-.291l-27.4-48.826a.568.568,0,1,1,.99-.555l27.4,48.826a.568.568,0,0,1-.494.846Z" transform="translate(-930.056 -509.227)" fill="#003f6a"/>
            </g>
            <g id="Group_2007" data-name="Group 2007" transform="translate(57.462 0.568)">
              <path id="Path_2562" data-name="Path 2562" d="M997.124,559.188a.567.567,0,0,1-.495-.291l-27.4-48.826a.568.568,0,0,1,.99-.555l27.4,48.826a.569.569,0,0,1-.5.846Z" transform="translate(-969.155 -509.227)" fill="#003f6a"/>
            </g>
            <g id="Group_2008" data-name="Group 2008" transform="translate(6.905 11.859)">
              <path id="Path_2563" data-name="Path 2563" d="M990.464,522.29H916.311a.568.568,0,0,1,0-1.135h74.153a.568.568,0,0,1,0,1.135Z" transform="translate(-915.744 -521.155)" fill="#003f6a"/>
            </g>
            <g id="Group_2009" data-name="Group 2009" transform="translate(14.269 24.981)">
              <path id="Path_2564" data-name="Path 2564" d="M998.248,536.153H924.091a.567.567,0,1,1,0-1.135h74.157a.567.567,0,0,1,0,1.135Z" transform="translate(-923.523 -535.018)" fill="#003f6a"/>
            </g>
            <g id="Group_2010" data-name="Group 2010" transform="translate(21.632 38.103)">
              <path id="Path_2565" data-name="Path 2565" d="M1006.027,550.017H931.87a.568.568,0,1,1,0-1.136h74.157a.568.568,0,1,1,0,1.136Z" transform="translate(-931.302 -548.881)" fill="#003f6a"/>
            </g>
          </g>
          <g id="Group_2012" data-name="Group 2012" transform="translate(55.559 48.826)">
            <path id="Path_2566" data-name="Path 2566" d="M968.279,581.908a1.135,1.135,0,0,1-1.135-1.136V561.345a1.135,1.135,0,1,1,2.27,0v19.427A1.135,1.135,0,0,1,968.279,581.908Z" transform="translate(-967.144 -560.209)" fill="#003f6a"/>
          </g>
          <g id="Group_2013" data-name="Group 2013" transform="translate(65.971 48.826)">
            <path id="Path_2567" data-name="Path 2567" d="M979.279,581.908a1.135,1.135,0,0,1-1.135-1.136V561.345a1.135,1.135,0,1,1,2.27,0v19.427A1.135,1.135,0,0,1,979.279,581.908Z" transform="translate(-978.144 -560.209)" fill="#003f6a"/>
          </g>
        </g>
        <g id="Group_2015" data-name="Group 2015" transform="translate(165.729 42.982)">
          <path id="Path_2568" data-name="Path 2568" d="M1181.517,578.321h-96.849a1.135,1.135,0,0,1-1.135-1.136V494.22a1.135,1.135,0,0,1,1.135-1.135h96.849a1.136,1.136,0,0,1,1.136,1.135v82.965A1.136,1.136,0,0,1,1181.517,578.321ZM1085.8,576.05h94.578V495.356H1085.8Z" transform="translate(-1083.534 -493.085)" fill="#003f6a"/>
        </g>
        <g id="Group_2016" data-name="Group 2016" transform="translate(98.645 42.982)">
          <path id="Path_2569" data-name="Path 2569" d="M1080.882,578.321H1013.8a1.135,1.135,0,0,1-1.136-1.136V494.22a1.135,1.135,0,0,1,1.136-1.135h67.083a1.135,1.135,0,0,1,1.135,1.135v82.965A1.135,1.135,0,0,1,1080.882,578.321Zm-65.948-2.271h64.813V495.356h-64.813Z" transform="translate(-1012.663 -493.085)" fill="#003f6a"/>
        </g>
        <g id="Group_2017" data-name="Group 2017" transform="translate(98.645)">
          <path id="Path_2570" data-name="Path 2570" d="M1080.881,492.927H1013.8a1.135,1.135,0,0,1-.9-1.834l33.541-42.981a1.136,1.136,0,0,1,1.79,0l33.542,42.981a1.135,1.135,0,0,1-.9,1.834Zm-64.757-2.271h62.432l-31.216-40Z" transform="translate(-1012.663 -447.676)" fill="#003f6a"/>
        </g>
        <g id="Group_2018" data-name="Group 2018" transform="translate(156.73 7.241)">
          <path id="Path_2571" data-name="Path 2571" d="M1097.408,486.105a1.134,1.134,0,0,1-.9-.436l-22.244-28.508a1.136,1.136,0,0,1,1.791-1.4l22.244,28.509a1.136,1.136,0,0,1-.895,1.833Z" transform="translate(-1074.028 -455.326)" fill="#003f6a"/>
        </g>
        <g id="Group_2019" data-name="Group 2019" transform="translate(193.845 7.241)">
          <path id="Path_2572" data-name="Path 2572" d="M1136.617,486.105a1.134,1.134,0,0,1-.9-.436l-22.244-28.508a1.136,1.136,0,0,1,1.791-1.4l22.243,28.509a1.136,1.136,0,0,1-.894,1.833Z" transform="translate(-1113.238 -455.326)" fill="#003f6a"/>
        </g>
        <g id="Group_2020" data-name="Group 2020" transform="translate(183.29 7.81)">
          <path id="Path_2573" data-name="Path 2573" d="M1124.9,485.57a.568.568,0,0,1-.448-.219l-22.244-28.509a.568.568,0,0,1,.9-.7l22.244,28.509a.567.567,0,0,1-.447.917Z" transform="translate(-1102.087 -455.927)" fill="#003f6a"/>
        </g>
        <g id="Group_2021" data-name="Group 2021" transform="translate(171.001 7.81)">
          <path id="Path_2574" data-name="Path 2574" d="M1111.915,485.57a.568.568,0,0,1-.448-.219l-22.244-28.509a.568.568,0,1,1,.9-.7l22.244,28.509a.568.568,0,0,1-.448.917Z" transform="translate(-1089.103 -455.927)" fill="#003f6a"/>
        </g>
        <g id="Group_2022" data-name="Group 2022" transform="translate(132.186)">
          <path id="Path_2575" data-name="Path 2575" d="M1146.1,449.947h-96.868a1.135,1.135,0,1,1,0-2.271H1146.1a1.135,1.135,0,0,1,0,2.271Z" transform="translate(-1048.098 -447.676)" fill="#003f6a"/>
        </g>
        <g id="Group_2023" data-name="Group 2023" transform="translate(156.731 7.242)">
          <path id="Path_2576" data-name="Path 2576" d="M1141.109,457.6h-65.946a1.135,1.135,0,0,1,0-2.271h65.946a1.135,1.135,0,0,1,0,2.271Z" transform="translate(-1074.028 -455.327)" fill="#003f6a"/>
        </g>
        <g id="Group_2024" data-name="Group 2024" transform="translate(167.853 20.658)">
          <path id="Path_2577" data-name="Path 2577" d="M1152.2,471.771h-65.288a1.135,1.135,0,0,1,0-2.271H1152.2a1.135,1.135,0,1,1,0,2.271Z" transform="translate(-1085.778 -469.5)" fill="#003f6a"/>
        </g>
        <g id="Group_2025" data-name="Group 2025" transform="translate(162.941 14.517)">
          <path id="Path_2578" data-name="Path 2578" d="M1146.445,464.149h-65.289a.568.568,0,0,1,0-1.136h65.289a.568.568,0,0,1,0,1.136Z" transform="translate(-1080.589 -463.013)" fill="#003f6a"/>
        </g>
        <g id="Group_2026" data-name="Group 2026" transform="translate(174.343 29.034)">
          <path id="Path_2579" data-name="Path 2579" d="M1158.491,479.484H1093.2a.568.568,0,1,1,0-1.135h65.288a.568.568,0,1,1,0,1.135Z" transform="translate(-1092.635 -478.349)" fill="#003f6a"/>
        </g>
        <g id="Group_2027" data-name="Group 2027" transform="translate(178.974 35.751)">
          <path id="Path_2580" data-name="Path 2580" d="M1164.611,487.715h-65.948a1.135,1.135,0,1,1,0-2.27h65.948a1.135,1.135,0,1,1,0,2.27Z" transform="translate(-1097.527 -485.445)" fill="#003f6a"/>
        </g>
        <g id="Group_2028" data-name="Group 2028" transform="translate(186.947 61.974)">
          <path id="Path_2581" data-name="Path 2581" d="M1171.058,579.392h-63.972a1.136,1.136,0,0,1-1.136-1.136V514.284a1.135,1.135,0,0,1,1.136-1.135h63.972a1.135,1.135,0,0,1,1.135,1.135v63.972A1.136,1.136,0,0,1,1171.058,579.392Zm-62.838-2.271h61.7v-61.7h-61.7Z" transform="translate(-1105.95 -513.149)" fill="#003f6a"/>
        </g>
        <g id="Group_2029" data-name="Group 2029" transform="translate(187.515 68.992)">
          <path id="Path_2582" data-name="Path 2582" d="M1171.091,521.7h-63.973a.568.568,0,0,1,0-1.136h63.973a.568.568,0,0,1,0,1.136Z" transform="translate(-1106.55 -520.563)" fill="#003f6a"/>
        </g>
        <g id="Group_2030" data-name="Group 2030" transform="translate(187.515 75.351)">
          <path id="Path_2583" data-name="Path 2583" d="M1171.091,528.416h-63.973a.567.567,0,1,1,0-1.135h63.973a.567.567,0,1,1,0,1.135Z" transform="translate(-1106.55 -527.281)" fill="#003f6a"/>
        </g>
        <g id="Group_2031" data-name="Group 2031" transform="translate(187.515 81.709)">
          <path id="Path_2584" data-name="Path 2584" d="M1171.091,535.134h-63.973a.568.568,0,0,1,0-1.136h63.973a.568.568,0,0,1,0,1.136Z" transform="translate(-1106.55 -533.998)" fill="#003f6a"/>
        </g>
        <g id="Group_2032" data-name="Group 2032" transform="translate(187.515 88.068)">
          <path id="Path_2585" data-name="Path 2585" d="M1171.091,541.851h-63.973a.567.567,0,1,1,0-1.135h63.973a.567.567,0,1,1,0,1.135Z" transform="translate(-1106.55 -540.716)" fill="#003f6a"/>
        </g>
        <g id="Group_2033" data-name="Group 2033" transform="translate(187.515 94.426)">
          <path id="Path_2586" data-name="Path 2586" d="M1171.091,548.568h-63.973a.568.568,0,1,1,0-1.135h63.973a.568.568,0,0,1,0,1.135Z" transform="translate(-1106.55 -547.433)" fill="#003f6a"/>
        </g>
        <g id="Group_2034" data-name="Group 2034" transform="translate(187.515 100.784)">
          <path id="Path_2587" data-name="Path 2587" d="M1171.091,555.286h-63.973a.568.568,0,0,1,0-1.136h63.973a.568.568,0,0,1,0,1.136Z" transform="translate(-1106.55 -554.15)" fill="#003f6a"/>
        </g>
        <g id="Group_2035" data-name="Group 2035" transform="translate(187.515 107.143)">
          <path id="Path_2588" data-name="Path 2588" d="M1171.091,562h-63.973a.567.567,0,1,1,0-1.135h63.973a.567.567,0,1,1,0,1.135Z" transform="translate(-1106.55 -560.868)" fill="#003f6a"/>
        </g>
        <g id="Group_2036" data-name="Group 2036" transform="translate(187.515 113.501)">
          <path id="Path_2589" data-name="Path 2589" d="M1171.091,568.721h-63.973a.568.568,0,0,1,0-1.136h63.973a.568.568,0,0,1,0,1.136Z" transform="translate(-1106.55 -567.585)" fill="#003f6a"/>
        </g>
        <g id="Group_2037" data-name="Group 2037" transform="translate(187.515 119.86)">
          <path id="Path_2590" data-name="Path 2590" d="M1171.091,575.438h-63.973a.567.567,0,1,1,0-1.135h63.973a.567.567,0,1,1,0,1.135Z" transform="translate(-1106.55 -574.303)" fill="#003f6a"/>
        </g>
        <g id="Group_2038" data-name="Group 2038" transform="translate(108.214 57.695)">
          <path id="Path_2591" data-name="Path 2591" d="M1041,527.987h-17.088a1.135,1.135,0,0,1-1.135-1.136V509.763a1.135,1.135,0,0,1,1.135-1.135H1041a1.135,1.135,0,0,1,1.136,1.135v17.088A1.135,1.135,0,0,1,1041,527.987Zm-15.952-2.271h14.818V510.9h-14.818Z" transform="translate(-1022.772 -508.628)" fill="#003f6a"/>
        </g>
        <g id="Group_2039" data-name="Group 2039" transform="translate(136.913 57.695)">
          <path id="Path_2592" data-name="Path 2592" d="M1071.315,527.987h-17.089a1.136,1.136,0,0,1-1.136-1.136V509.763a1.135,1.135,0,0,1,1.136-1.135h17.089a1.135,1.135,0,0,1,1.135,1.135v17.088A1.135,1.135,0,0,1,1071.315,527.987Zm-15.953-2.271h14.818V510.9h-14.818Z" transform="translate(-1053.091 -508.628)" fill="#003f6a"/>
        </g>
      </g>
    </g>
    <g id="Group_2042" data-name="Group 2042" transform="translate(1105.437 292.574)">
      <path id="Path_2593" data-name="Path 2593" d="M1649.016,436.893c-.058,0-.115,0-.173.009s-.116-.009-.173-.009Z" transform="translate(-1147.957 -301.011)" fill="#51c9c0"/>
      <path id="Path_2594" data-name="Path 2594" d="M1647.92,436.9c8.7.76,20.07,58.338,15.452,73.717-4.038,13.446-15.452,15.941-15.452,15.941s-11.414-2.495-15.452-15.941C1627.849,495.241,1639.223,437.663,1647.92,436.9Z" transform="translate(-1147.034 -301.012)" fill="#bdd97d"/>
      <circle id="Ellipse_131" data-name="Ellipse 131" cx="29.984" cy="29.984" r="29.984" transform="translate(202.713 153.414)" fill="#579d8c"/>
      <path id="Path_2595" data-name="Path 2595" d="M1590.941,510.315c.154-.172.238.273.238.273,3.172,3.674,20.625,25.078-.083,28.6v.064c-.059-.01-.117-.023-.175-.035-.072.012-.142.025-.214.035v-.077c-20.422-4.208-3.158-25.006,0-28.591C1590.708,510.579,1590.791,510.142,1590.941,510.315Z" transform="translate(-1144.334 -304.933)" fill="#51c9c0"/>
      <path id="Path_2596" data-name="Path 2596" d="M1279.48,293.34a15.556,15.556,0,1,1-15.556,15.556A15.555,15.555,0,0,1,1279.48,293.34Z" transform="translate(-1127.396 -293.34)" fill="#f0ab00"/>
      <path id="Path_2597" data-name="Path 2597" d="M1247.883,566.3a5.909,5.909,0,0,1-5.908,5.909h-8.888a5.834,5.834,0,0,1-5.833-5.834V546.733h20.629Z" transform="translate(-1125.437 -306.881)" fill="#76beeb"/>
      <circle id="Ellipse_132" data-name="Ellipse 132" cx="16.279" cy="16.279" r="16.279" transform="translate(56.308 248.816) rotate(-22.668)" fill="#fff"/>
      <circle id="Ellipse_133" data-name="Ellipse 133" cx="16.28" cy="16.28" r="16.28" transform="translate(0 241.284)" fill="#fff"/>
    </g>
    <g id="Group_2043" data-name="Group 2043" transform="translate(1205.264 531.407)">
      <path id="Path_2598" data-name="Path 2598" d="M1232.246,573.654h8.887a7.18,7.18,0,0,0,7.171-7.172V546.919a1.262,1.262,0,0,0-1.262-1.262h-20.629a1.262,1.262,0,0,0-1.263,1.262v19.639A7.1,7.1,0,0,0,1232.246,573.654Zm13.534-25.473v18.3a4.653,4.653,0,0,1-4.647,4.647h-8.887a4.577,4.577,0,0,1-4.571-4.572V548.182Z" transform="translate(-1225.151 -545.657)" fill="#003f6a"/>
    </g>
    <g id="Group_2044" data-name="Group 2044" transform="translate(1220.272 535.313)">
      <path id="Path_2599" data-name="Path 2599" d="M1242.78,569.744a1.776,1.776,0,0,0,1.774-1.774V551.556a1.773,1.773,0,0,0-3.547,0V567.97A1.775,1.775,0,0,0,1242.78,569.744Zm0-18.518a.331.331,0,0,1,.331.33V567.97a.331.331,0,1,1-.662,0V551.556A.332.332,0,0,1,1242.78,551.226Z" transform="translate(-1241.007 -549.783)" fill="#003f6a"/>
    </g>
    <g id="Group_2045" data-name="Group 2045" transform="translate(1214.97 535.313)">
      <path id="Path_2600" data-name="Path 2600" d="M1237.179,569.744a1.776,1.776,0,0,0,1.773-1.774V551.556a1.773,1.773,0,0,0-3.547,0V567.97A1.776,1.776,0,0,0,1237.179,569.744Zm0-18.518a.331.331,0,0,1,.33.33V567.97a.331.331,0,1,1-.662,0V551.556A.332.332,0,0,1,1237.179,551.226Z" transform="translate(-1235.405 -549.783)" fill="#003f6a"/>
    </g>
    <g id="Group_2046" data-name="Group 2046" transform="translate(1209.667 535.313)">
      <path id="Path_2601" data-name="Path 2601" d="M1231.577,569.744a1.775,1.775,0,0,0,1.773-1.774V551.556a1.773,1.773,0,0,0-3.547,0V567.97A1.776,1.776,0,0,0,1231.577,569.744Zm0-18.518a.331.331,0,0,1,.33.33V567.97a.331.331,0,1,1-.661,0V551.556A.332.332,0,0,1,1231.577,551.226Z" transform="translate(-1229.803 -549.783)" fill="#003f6a"/>
    </g>
    <g id="Group_2047" data-name="Group 2047" transform="translate(1204.279 527.632)">
      <path id="Path_2602" data-name="Path 2602" d="M1227.26,547.968h18.824a3.15,3.15,0,0,0,0-6.3H1227.26a3.15,3.15,0,0,0,0,6.3Zm18.824-3.775a.625.625,0,1,1,0,1.25H1227.26a.625.625,0,0,1,0-1.25Z" transform="translate(-1224.111 -541.669)" fill="#003f6a"/>
    </g>
    <g id="Group_2048" data-name="Group 2048" transform="translate(1212.264 524.948)">
      <path id="Path_2603" data-name="Path 2603" d="M1233.448,543.534a.9.9,0,0,0,.9-.9v-1.379c0-.377.212-.617.359-.617h4.883c.121,0,.3.22.3.552v1.444a.9.9,0,1,0,1.8,0v-1.444a2.244,2.244,0,0,0-2.107-2.355h-4.883a2.3,2.3,0,0,0-2.162,2.42v1.379A.9.9,0,0,0,1233.448,543.534Z" transform="translate(-1232.547 -538.833)" fill="#003f6a"/>
    </g>
    <g id="Group_2049" data-name="Group 2049" transform="translate(1233.747 504.869)">
      <path id="Path_2604" data-name="Path 2604" d="M1256.5,525.158h76.309a1.262,1.262,0,0,0,1.263-1.263v-5.012a1.262,1.262,0,0,0-1.263-1.263H1256.5a1.263,1.263,0,0,0-1.263,1.263V523.9A1.263,1.263,0,0,0,1256.5,525.158Zm75.047-2.525h-73.786v-2.488h73.786Z" transform="translate(-1255.242 -517.621)" fill="#003f6a"/>
    </g>
    <g id="Group_2050" data-name="Group 2050" transform="translate(1233.747 513.07)">
      <path id="Path_2605" data-name="Path 2605" d="M1256.5,533.822h76.309a1.262,1.262,0,0,0,1.263-1.263v-5.012a1.262,1.262,0,0,0-1.263-1.263H1256.5a1.263,1.263,0,0,0-1.263,1.263v5.012A1.263,1.263,0,0,0,1256.5,533.822Zm75.047-2.525h-73.786v-2.488h73.786Z" transform="translate(-1255.242 -526.285)" fill="#003f6a"/>
    </g>
    <g id="Group_2051" data-name="Group 2051" transform="translate(1233.747 521.271)">
      <path id="Path_2606" data-name="Path 2606" d="M1256.5,542.486h76.309a1.262,1.262,0,0,0,1.263-1.263v-5.012a1.262,1.262,0,0,0-1.263-1.263H1256.5a1.263,1.263,0,0,0-1.263,1.263v5.012A1.263,1.263,0,0,0,1256.5,542.486Zm75.047-2.524h-73.786v-2.488h73.786Z" transform="translate(-1255.242 -534.949)" fill="#003f6a"/>
    </g>
    <g id="Group_2052" data-name="Group 2052" transform="translate(1231.425 533.056)">
      <path id="Path_2607" data-name="Path 2607" d="M1254.051,557.921h80.955a1.262,1.262,0,0,0,1.262-1.262v-8a1.262,1.262,0,0,0-1.262-1.263h-80.955a1.262,1.262,0,0,0-1.262,1.263v8A1.262,1.262,0,0,0,1254.051,557.921Zm79.692-2.524h-78.429v-5.473h78.429Z" transform="translate(-1252.789 -547.399)" fill="#003f6a"/>
    </g>
    <g id="Group_2053" data-name="Group 2053" transform="translate(1292.053 541.054)">
      <path id="Path_2608" data-name="Path 2608" d="M1318.1,572.4h4.929a1.262,1.262,0,0,0,1.263-1.262V557.111a1.262,1.262,0,0,0-1.263-1.263H1318.1a1.263,1.263,0,0,0-1.262,1.263v14.028A1.262,1.262,0,0,0,1318.1,572.4Zm3.667-2.524h-2.4v-11.5h2.4Z" transform="translate(-1316.84 -555.848)" fill="#003f6a"/>
    </g>
    <g id="Group_2054" data-name="Group 2054" transform="translate(1246.822 541.054)">
      <path id="Path_2609" data-name="Path 2609" d="M1270.317,572.4h4.93a1.262,1.262,0,0,0,1.262-1.262V557.111a1.262,1.262,0,0,0-1.262-1.263h-4.93a1.262,1.262,0,0,0-1.262,1.263v14.028A1.262,1.262,0,0,0,1270.317,572.4Zm3.667-2.524h-2.4v-11.5h2.4Z" transform="translate(-1269.055 -555.848)" fill="#003f6a"/>
    </g>
    <g id="Group_2055" data-name="Group 2055" transform="translate(1288.909 510.423)">
      <path id="Path_2610" data-name="Path 2610" d="M1314.24,528.12h3.684a.721.721,0,0,0,.721-.721v-3.189a.721.721,0,0,0-.721-.721h-3.684a.721.721,0,0,0-.721.721V527.4A.721.721,0,0,0,1314.24,528.12Zm2.963-1.442h-2.242v-1.746h2.242Z" transform="translate(-1313.519 -523.488)" fill="#003f6a"/>
    </g>
    <g id="Group_2056" data-name="Group 2056" transform="translate(1252.292 510.423)">
      <path id="Path_2611" data-name="Path 2611" d="M1275.555,528.12h3.684a.721.721,0,0,0,.721-.721v-3.189a.721.721,0,0,0-.721-.721h-3.684a.721.721,0,0,0-.721.721V527.4A.721.721,0,0,0,1275.555,528.12Zm2.963-1.442h-2.242v-1.746h2.242Z" transform="translate(-1274.834 -523.488)" fill="#003f6a"/>
    </g>
    <g id="Group_2057" data-name="Group 2057" transform="translate(1288.909 519.12)">
      <path id="Path_2612" data-name="Path 2612" d="M1314.24,536.811h3.684a.721.721,0,0,0,.721-.721V533.4a.721.721,0,0,0-.721-.721h-3.684a.721.721,0,0,0-.721.721v2.693A.721.721,0,0,0,1314.24,536.811Zm2.963-1.442h-2.242v-1.25h2.242Z" transform="translate(-1313.519 -532.676)" fill="#003f6a"/>
    </g>
    <g id="Group_2058" data-name="Group 2058" transform="translate(1252.292 519.12)">
      <path id="Path_2613" data-name="Path 2613" d="M1275.555,536.811h3.684a.721.721,0,0,0,.721-.721V533.4a.721.721,0,0,0-.721-.721h-3.684a.721.721,0,0,0-.721.721v2.693A.721.721,0,0,0,1275.555,536.811Zm2.963-1.442h-2.242v-1.25h2.242Z" transform="translate(-1274.834 -532.676)" fill="#003f6a"/>
    </g>
    <g id="Group_2059" data-name="Group 2059" transform="translate(1288.909 526.826)">
      <path id="Path_2614" data-name="Path 2614" d="M1314.24,549.031h3.684a.721.721,0,0,0,.721-.721v-6.773a.721.721,0,0,0-.721-.72h-3.684a.721.721,0,0,0-.721.72v6.773A.721.721,0,0,0,1314.24,549.031Zm2.963-1.443h-2.242v-5.33h2.242Z" transform="translate(-1313.519 -540.817)" fill="#003f6a"/>
    </g>
    <g id="Group_2060" data-name="Group 2060" transform="translate(1252.292 526.826)">
      <path id="Path_2615" data-name="Path 2615" d="M1275.555,549.031h3.684a.721.721,0,0,0,.721-.721v-6.773a.721.721,0,0,0-.721-.72h-3.684a.721.721,0,0,0-.721.72v6.773A.721.721,0,0,0,1275.555,549.031Zm2.963-1.443h-2.242v-5.33h2.242Z" transform="translate(-1274.834 -540.817)" fill="#003f6a"/>
    </g>
    <g id="Group_2061" data-name="Group 2061" transform="translate(922.099 564.521)">
      <path id="Path_2616" data-name="Path 2616" d="M1080.936,580.64H1310c1.337,0,2.422.565,2.422,1.262s-1.085,1.263-2.422,1.263H1080.936c-1.337,0-2.421-.565-2.421-1.263S1079.6,580.64,1080.936,580.64Z" transform="translate(-934.15 -580.64)" fill="#003f6a"/>
      <path id="Path_2617" data-name="Path 2617" d="M928.421,580.64h122.209c1.336,0,2.422.565,2.422,1.262s-1.085,1.263-2.422,1.263H928.421c-1.337,0-2.421-.565-2.421-1.263S927.085,580.64,928.421,580.64Z" transform="translate(-926 -580.64)" fill="#003f6a"/>
    </g>
    <g id="Group_2065" data-name="Group 2065" transform="translate(1190.637 415.198)">
      <g id="Group_2062" data-name="Group 2062" transform="translate(20.11 13.237)">
        <path id="Path_2618" data-name="Path 2618" d="M1231.624,449.682h13.262c1.68,0,1.714-1.827.971-2.866l-2.008-2.808-3.409-4.768-.4,2.02c-.178.887-1.531.51-1.354-.374l.7-3.5a.708.708,0,0,1,.863-.49l3.906.965a.7.7,0,0,1-.374,1.354l-1.993-.492,3.878,5.424,1.6,2.232a3.071,3.071,0,0,1-1.25,4.507,6.436,6.436,0,0,1-2.505.2h-11.881A.7.7,0,0,1,1231.624,449.682Z" transform="translate(-1230.944 -436.872)" fill="#003f6a"/>
      </g>
      <g id="Group_2063" data-name="Group 2063" transform="translate(8.625)">
        <path id="Path_2619" data-name="Path 2619" d="M1224.641,428.79q-1.566,2.108-3.133,4.215l2.188-.336c.886-.136,1.266,1.216.374,1.354l-3.772.58a.711.711,0,0,1-.863-.49q-.307-1.735-.61-3.47c-.156-.885,1.2-1.264,1.354-.373q.155.885.312,1.769l3.432-4.618c1.332-1.792,2.7-4.593,5.261-4.532,2.3.055,3.733,3.212,4.844,4.839l3.918,5.74c.512.75-.705,1.451-1.213.709l-3.147-4.612-2.118-3.1a6.023,6.023,0,0,0-1.687-1.987C1227.788,423.282,1225.519,427.608,1224.641,428.79Z" transform="translate(-1218.811 -422.887)" fill="#003f6a"/>
      </g>
      <g id="Group_2064" data-name="Group 2064" transform="translate(0 13.266)">
        <path id="Path_2620" data-name="Path 2620" d="M1212.139,443.779l4.835-6.574c.53-.72,1.749-.022,1.213.709l-4.062,5.521-2.207,3c-.687.935-1.381,3.238.528,3.238h12.161l-1.45-1.445a.7.7,0,0,1,.993-.993l2.7,2.695a.71.71,0,0,1,0,.992l-2.434,2.548c-.627.656-1.619-.339-.993-.993l1.337-1.4h-11a4.713,4.713,0,0,1-2.789-.474C1208.085,448.7,1210.817,445.576,1212.139,443.779Z" transform="translate(-1209.699 -436.902)" fill="#003f6a"/>
      </g>
    </g>
    <g id="Group_2071" data-name="Group 2071" transform="translate(1104.191 511.851)">
      <g id="Group_2066" data-name="Group 2066" transform="translate(61.324 20.288)">
        <path id="Path_2621" data-name="Path 2621" d="M1200.7,581.513a17.542,17.542,0,1,0-17.541-17.542A17.561,17.561,0,0,0,1200.7,581.513Zm0-32.559a15.017,15.017,0,1,1-15.017,15.017A15.034,15.034,0,0,1,1200.7,548.954Z" transform="translate(-1183.158 -546.43)" fill="#003f6a"/>
      </g>
      <g id="Group_2067" data-name="Group 2067" transform="translate(0 20.288)">
        <path id="Path_2622" data-name="Path 2622" d="M1135.914,581.513a17.542,17.542,0,1,0-17.542-17.542A17.562,17.562,0,0,0,1135.914,581.513Zm0-32.559a15.017,15.017,0,1,1-15.018,15.017A15.034,15.034,0,0,1,1135.914,548.954Z" transform="translate(-1118.372 -546.43)" fill="#003f6a"/>
      </g>
      <g id="Group_2068" data-name="Group 2068" transform="translate(16.28 6.568)">
        <path id="Path_2623" data-name="Path 2623" d="M1198.159,564.46a1.263,1.263,0,0,0,1.108-1.865L1183,532.619a1.314,1.314,0,0,0-.145-.221,1.4,1.4,0,0,0-.152-.156,1.259,1.259,0,0,0-.8-.306h-31.97a1.261,1.261,0,0,0-1.157.756l-13.1,30a1.262,1.262,0,0,0,1.157,1.767H1168.8a1.262,1.262,0,0,0,1.157-.757L1182,536.073l15.046,27.727A1.263,1.263,0,0,0,1198.159,564.46Zm-30.181-2.524h-29.217l12-27.476h29.189Z" transform="translate(-1135.571 -531.936)" fill="#003f6a"/>
      </g>
      <g id="Group_2069" data-name="Group 2069" transform="translate(24.565 2.158)">
        <path id="Path_2624" data-name="Path 2624" d="M1146.533,533.964H1157.5a2.212,2.212,0,0,0,2.209-2.209v-2.269a2.212,2.212,0,0,0-2.209-2.209h-10.963a2.212,2.212,0,0,0-2.209,2.209v2.269A2.212,2.212,0,0,0,1146.533,533.964Zm10.648-2.525h-10.332V529.8h10.332Z" transform="translate(-1144.324 -527.277)" fill="#003f6a"/>
      </g>
      <g id="Group_2070" data-name="Group 2070" transform="translate(61.334 0)">
        <path id="Path_2625" data-name="Path 2625" d="M1184.432,534.089a1.262,1.262,0,0,0,1.262-1.262v-5.305h8.615a1.262,1.262,0,0,0,0-2.524h-9.876a1.262,1.262,0,0,0-1.263,1.262v6.568A1.262,1.262,0,0,0,1184.432,534.089Z" transform="translate(-1183.169 -524.997)" fill="#003f6a"/>
      </g>
    </g>
    <g id="Group_2072" data-name="Group 2072" transform="translate(1336.907 463.886)">
      <path id="Path_2626" data-name="Path 2626" d="M1365.49,542.633a1.262,1.262,0,0,0,1.262-1.262V475.587a1.262,1.262,0,1,0-2.524,0v65.784A1.262,1.262,0,0,0,1365.49,542.633Z" transform="translate(-1364.227 -474.324)" fill="#003f6a"/>
    </g>
    <g id="Group_2073" data-name="Group 2073" transform="translate(1336.908 471.133)">
      <path id="Path_2627" data-name="Path 2627" d="M1365.49,492.731a1.259,1.259,0,0,0,.89-.367l8.276-8.227a1.262,1.262,0,0,0-1.779-1.791l-8.277,8.227a1.262,1.262,0,0,0,.89,2.157Z" transform="translate(-1364.228 -481.98)" fill="#003f6a"/>
    </g>
    <g id="Group_2074" data-name="Group 2074" transform="translate(1326.999 479.359)">
      <path id="Path_2628" data-name="Path 2628" d="M1364.932,507.917a1.263,1.263,0,0,0,1.046-1.968l-9.908-14.721a1.262,1.262,0,1,0-2.094,1.409l9.909,14.722A1.261,1.261,0,0,0,1364.932,507.917Z" transform="translate(-1353.759 -490.671)" fill="#003f6a"/>
    </g>
    <g id="Group_2075" data-name="Group 2075" transform="translate(1306.923 445.262)">
      <path id="Path_2629" data-name="Path 2629" d="M1363.8,517.142a31.247,31.247,0,1,0-31.247-31.247A31.282,31.282,0,0,0,1363.8,517.142Zm0-59.969a28.722,28.722,0,1,1-28.722,28.723A28.755,28.755,0,0,1,1363.8,457.172Z" transform="translate(-1332.55 -454.648)" fill="#003f6a"/>
    </g>
    <g id="Group_2076" data-name="Group 2076" transform="translate(1542.021 499.798)">
      <path id="Path_2630" data-name="Path 2630" d="M1582.06,524.242a35.828,35.828,0,0,1,7.305-11.8c.482-.526,1.261.257.781.781a36.641,36.641,0,0,0-4.181,5.546c.014.012.029.022.044.036l4.5,4.5V512.829a.552.552,0,0,1,1.1,0v10.458l4.487-4.486a.561.561,0,0,1,.053-.044,37.025,37.025,0,0,0-4.19-5.538c-.48-.523.3-1.307.781-.781a36.71,36.71,0,0,1,7.233,11.61,14.606,14.606,0,0,1,.659,9.553c-1.222,3.791-4.617,6.147-8.136,7.612-.658.273-.942-.8-.294-1.065,3.4-1.415,6.511-3.723,7.535-7.412a11.234,11.234,0,0,0,.112-5.071l-8.24,8.24v4.737a.552.552,0,0,1-1.1,0v-4.724l-8.249-8.248a12.025,12.025,0,0,0,.059,4.875c.889,3.782,4.172,6.182,7.584,7.6.648.27.364,1.338-.294,1.065-3.52-1.465-6.708-3.731-8.071-7.424C1580.4,530.71,1580.985,527.246,1582.06,524.242Zm17.436,2.219a.554.554,0,0,1,.072-.059,23.492,23.492,0,0,0-.881-2.64,31.438,31.438,0,0,0-1.957-4.031q-2.558,2.56-5.118,5.118v9.495Zm-16.883,0q3.947,3.949,7.9,7.9v-9.495l-5.121-5.12a33.809,33.809,0,0,0-1.889,3.829,21.577,21.577,0,0,0-.961,2.829A.765.765,0,0,1,1582.613,526.46Z" transform="translate(-1580.921 -512.264)" fill="#003f6a"/>
    </g>
    <g id="Group_2103" data-name="Group 2103" transform="translate(1313.731 320.483)">
      <g id="Group_2077" data-name="Group 2077" transform="translate(160.429 196.173)">
        <path id="Path_2631" data-name="Path 2631" d="M1510.49,572.95h20.185c4.489,0,5.094-2.927,5.094-5.789V534.482c0-1.885,1.019-1.885,1.4-1.885h6.268a1.262,1.262,0,0,0,0-2.524h-6.268c-2.385,0-3.925,1.73-3.925,4.409v32.679c0,2.97-.744,3.265-2.57,3.265H1510.49a1.262,1.262,0,1,0,0,2.525Z" transform="translate(-1509.228 -530.073)" fill="#003f6a"/>
      </g>
      <g id="Group_2078" data-name="Group 2078" transform="translate(0 178.192)">
        <path id="Path_2632" data-name="Path 2632" d="M1341,588.536H1360a1.263,1.263,0,0,0,1.255-1.132,29.888,29.888,0,0,1,3.8-10.84c4.2-7.026,10.723-10.588,19.385-10.588,8.44,0,14.8,3.559,18.9,10.58a30.4,30.4,0,0,1,3.725,10.848,1.264,1.264,0,0,0,1.256,1.133h30.6a1.262,1.262,0,0,0,1.254-1.125,29.743,29.743,0,0,1,3.828-10.737c4.2-6.959,10.687-10.488,19.273-10.488,8.432,0,14.822,3.546,18.992,10.54a30.073,30.073,0,0,1,3.8,10.653,1.262,1.262,0,0,0,1.254,1.118h14.033c.144,0,4.04.024,6.3-2.21a5.33,5.33,0,0,0,1.585-3.94,5.785,5.785,0,0,0-3.732-5.544,9.706,9.706,0,0,0-2.334-.656,80.016,80.016,0,0,0-20.349-43.844,65.326,65.326,0,0,0-48.9-21.226c-21.365,0-35.164,8.526-42.978,15.678a52.988,52.988,0,0,0-11.744,15.224c-19.12,5.581-28.821,17.465-33.6,26.5a50.93,50.93,0,0,0-5.86,18.716,1.262,1.262,0,0,0,1.26,1.344Zm17.9-2.525h-16.49a51.44,51.44,0,0,1,5.467-16.451c6.692-12.578,17.649-21.095,32.565-25.313a1.258,1.258,0,0,0,.815-.715,49.872,49.872,0,0,1,11.475-15c7.475-6.813,20.689-14.937,41.186-14.937a62.918,62.918,0,0,1,47.055,20.424,77.42,77.42,0,0,1,19.806,43.416,1.262,1.262,0,0,0,1.237,1.123c.477.009,4.694.2,4.694,3.783a2.855,2.855,0,0,1-.829,2.138c-1.247,1.239-3.694,1.489-4.519,1.488H1488.4a33.033,33.033,0,0,0-3.961-10.54c-3.2-5.371-9.474-11.771-21.161-11.771-11.917,0-18.26,6.41-21.482,11.788a32.426,32.426,0,0,0-3.956,10.562h-28.425a33.159,33.159,0,0,0-3.847-10.652c-3.153-5.432-9.378-11.909-21.13-11.909-12.016,0-18.378,6.47-21.6,11.9A32.6,32.6,0,0,0,1358.91,586.011Z" transform="translate(-1339.742 -511.077)" fill="#003f6a"/>
      </g>
      <g id="Group_2079" data-name="Group 2079" transform="translate(103.892 236.526)">
        <path id="Path_2633" data-name="Path 2633" d="M1469.108,611.923a19.609,19.609,0,1,0-19.609-19.609A19.632,19.632,0,0,0,1469.108,611.923Zm0-36.694a17.085,17.085,0,1,1-17.084,17.085A17.1,17.1,0,0,1,1469.108,575.229Z" transform="translate(-1449.499 -572.704)" fill="#003f6a"/>
      </g>
      <g id="Group_2080" data-name="Group 2080" transform="translate(24.632 236.526)">
        <path id="Path_2634" data-name="Path 2634" d="M1385.375,611.923a19.609,19.609,0,1,0-19.61-19.609A19.631,19.631,0,0,0,1385.375,611.923Zm0-36.694a17.085,17.085,0,1,1-17.086,17.085A17.1,17.1,0,0,1,1385.375,575.229Z" transform="translate(-1365.765 -572.704)" fill="#003f6a"/>
      </g>
      <g id="Group_2081" data-name="Group 2081" transform="translate(47.879 184.386)">
        <path id="Path_2635" data-name="Path 2635" d="M1391.586,545.318h90.9a1.262,1.262,0,0,0,1.07-1.931,54.2,54.2,0,0,0-19.291-18.685,55.429,55.429,0,0,0-27.749-7.081,57.3,57.3,0,0,0-28.455,7.06,42.37,42.37,0,0,0-17.617,18.843,1.262,1.262,0,0,0,1.144,1.795Zm88.566-2.524h-86.53c7.531-14.222,23.4-22.648,42.893-22.648a52.939,52.939,0,0,1,26.5,6.752A51.351,51.351,0,0,1,1480.152,542.794Z" transform="translate(-1390.325 -517.621)" fill="#003f6a"/>
      </g>
      <g id="Group_2082" data-name="Group 2082" transform="translate(196.496 190.083)">
        <path id="Path_2636" data-name="Path 2636" d="M1554.684,538.345a1.262,1.262,0,0,0,1.262-1.263c0-.031,0-.062,0-.092s0-.062,0-.093v-12a1.262,1.262,0,0,0-1.262-1.262,7.353,7.353,0,0,0,0,14.706Zm-1.262-12.014v9.322a4.829,4.829,0,0,1,0-9.322Z" transform="translate(-1547.332 -523.639)" fill="#003f6a"/>
      </g>
      <g id="Group_2083" data-name="Group 2083" transform="translate(205.642 192.135)">
        <path id="Path_2637" data-name="Path 2637" d="M1558.256,528.331h3.222a1.262,1.262,0,0,0,0-2.524h-3.222a1.262,1.262,0,0,0,0,2.524Z" transform="translate(-1556.994 -525.807)" fill="#003f6a"/>
      </g>
      <g id="Group_2084" data-name="Group 2084" transform="translate(205.642 200.211)">
        <path id="Path_2638" data-name="Path 2638" d="M1558.256,536.864h3.222a1.262,1.262,0,0,0,0-2.524h-3.222a1.262,1.262,0,0,0,0,2.524Z" transform="translate(-1556.994 -534.339)" fill="#003f6a"/>
      </g>
      <g id="Group_2085" data-name="Group 2085" transform="translate(291.277 135.776)">
        <path id="Path_2639" data-name="Path 2639" d="M1648.726,567.647a1.262,1.262,0,0,0,1.261-1.262V467.528a1.262,1.262,0,0,0-2.524,0v98.858A1.262,1.262,0,0,0,1648.726,567.647Z" transform="translate(-1647.463 -466.266)" fill="#003f6a"/>
      </g>
      <g id="Group_2086" data-name="Group 2086" transform="translate(291.276 146.052)">
        <path id="Path_2640" data-name="Path 2640" d="M1648.726,487.741a1.255,1.255,0,0,0,.863-.342l8.627-8.094a1.262,1.262,0,1,0-1.726-1.841l-8.628,8.094a1.262,1.262,0,0,0,.864,2.183Z" transform="translate(-1647.463 -477.122)" fill="#003f6a"/>
      </g>
      <g id="Group_2087" data-name="Group 2087" transform="translate(281.82 156.481)">
        <path id="Path_2641" data-name="Path 2641" d="M1648.193,503.431a1.263,1.263,0,0,0,1.013-2.014l-9.457-12.765a1.262,1.262,0,1,0-2.028,1.5l9.456,12.766A1.263,1.263,0,0,0,1648.193,503.431Z" transform="translate(-1637.473 -488.14)" fill="#003f6a"/>
      </g>
      <g id="Group_2089" data-name="Group 2089" transform="translate(274.544 106.163)">
        <g id="Group_2088" data-name="Group 2088">
          <path id="Path_2642" data-name="Path 2642" d="M1647.532,527.174a1.233,1.233,0,0,0,.27-.029c.5-.108,12.188-2.814,16.391-16.811,4.112-13.689-4.177-61.189-12.67-72.606a6.435,6.435,0,0,0-3.292-2.631,1.251,1.251,0,0,0-.526-.114h-.346a1.245,1.245,0,0,0-.524.114,6.43,6.43,0,0,0-3.292,2.631c-8.493,11.417-16.782,58.917-12.671,72.606,4.2,14,15.9,16.7,16.392,16.811A1.225,1.225,0,0,0,1647.532,527.174Zm0-89.646c.345.078,1,.415,1.965,1.707,8.008,10.766,16.155,57.463,12.278,70.373a22.261,22.261,0,0,1-8.653,12.271,7.089,7.089,0,0,1-11.179,0,22.266,22.266,0,0,1-8.652-12.271c-3.878-12.911,4.269-59.607,12.278-70.373C1646.529,437.943,1647.188,437.606,1647.532,437.528Z" transform="translate(-1629.786 -434.982)" fill="#003f6a"/>
        </g>
      </g>
      <path id="Path_2643" data-name="Path 2643" d="M1523.307,580.642h166.127a1.291,1.291,0,1,1,0,2.524H1523.307a1.291,1.291,0,1,1,0-2.524Z" transform="translate(-1349.468 -336.603)" fill="#003f6a"/>
      <g id="Group_2090" data-name="Group 2090" transform="translate(169.571 59.857)">
        <path id="Path_2644" data-name="Path 2644" d="M1522.651,559.78c1.03,0,3.767,0,3.767-2.411V391.518c0-3.06-1.655-5.457-3.767-5.457s-3.765,2.4-3.765,5.457V557.369C1518.886,559.78,1521.336,559.78,1522.651,559.78Zm1.242-2.6a6.547,6.547,0,0,1-1.242.078,9.461,9.461,0,0,1-1.24-.052V391.518c0-1.79.815-2.933,1.241-2.933s1.242,1.143,1.242,2.933Z" transform="translate(-1518.886 -386.061)" fill="#003f6a"/>
      </g>
      <g id="Group_2091" data-name="Group 2091" transform="translate(174.908)">
        <path id="Path_2645" data-name="Path 2645" d="M1528.95,371.812a5.037,5.037,0,0,0,1.278-.17c2.287-.6,4.648-2.724,7.219-6.5.019-.027.036-.054.052-.081l21.579-37.545a3.14,3.14,0,0,0-.451-4.292h0a3.142,3.142,0,0,0-4.167,1.157l-26.553,34.282c-.015.02-.031.041-.045.062-5.99,8.785-2.184,11.818-1.729,12.135A4.846,4.846,0,0,0,1528.95,371.812Zm6.385-8.049c-2.7,3.956-4.617,5.14-5.746,5.436a2.2,2.2,0,0,1-1.978-.385c-.162-.158-2.043-2.223,2.318-8.633l26.55-34.279c.016-.02.03-.041.045-.062a.432.432,0,1,1,.441.3.874.874,0,0,0-.051.082Z" transform="translate(-1524.525 -322.825)" fill="#003f6a"/>
      </g>
      <g id="Group_2092" data-name="Group 2092" transform="translate(109.358 43.846)">
        <path id="Path_2646" data-name="Path 2646" d="M1504.221,382.462c7.566,0,8.292-3.826,8.353-4.314.463-4.045-3.012-6.514-10.327-7.353-.033,0-.065-.007-.1-.008l-43.274-1.622a3.144,3.144,0,0,0-3.589,2.4h0a3.142,3.142,0,0,0,2.964,3.149l42.7,7.543c.025,0,.051.009.077.011A28.031,28.031,0,0,0,1504.221,382.462Zm5.852-4.668c-.064.218-1.02,2.842-8.718,1.968l-42.7-7.543-.076-.01a.431.431,0,1,1,.061-.53c.032,0,.064.007.1.007l43.269,1.622c4.759.552,6.7,1.694,7.486,2.556A2.205,2.205,0,0,1,1510.073,377.795Z" transform="translate(-1455.274 -369.146)" fill="#003f6a"/>
      </g>
      <g id="Group_2093" data-name="Group 2093" transform="translate(176.747 57.618)">
        <path id="Path_2647" data-name="Path 2647" d="M1555.688,434.925a2.4,2.4,0,0,0,1.159-.292,3.141,3.141,0,0,0,.861-4.237l-18.492-39.223c-.01-.023-.023-.046-.035-.068-5.108-9.324-9.538-7.309-10.027-7.05-3.57,1.957-3.579,6.22-.042,12.677.016.028.032.056.05.083l23.656,36.271A3.427,3.427,0,0,0,1555.688,434.925Zm-18.739-42.64,18.49,39.219c.01.023.022.045.035.068a.432.432,0,1,1-.469.256c-.015-.028-.031-.056-.049-.082L1531.3,395.478c-2.3-4.206-2.484-6.447-2.235-7.589a2.2,2.2,0,0,1,1.241-1.587C1530.523,386.229,1533.216,385.49,1536.949,392.285Z" transform="translate(-1526.468 -383.696)" fill="#003f6a"/>
      </g>
      <g id="Group_2094" data-name="Group 2094" transform="translate(167.782 47.787)">
        <path id="Path_2648" data-name="Path 2648" d="M1522.55,384.418a5.554,5.554,0,1,0-5.554-5.555A5.56,5.56,0,0,0,1522.55,384.418Zm0-8.583a3.029,3.029,0,1,1-3.029,3.029A3.033,3.033,0,0,1,1522.55,375.834Z" transform="translate(-1516.997 -373.31)" fill="#003f6a"/>
      </g>
      <g id="Group_2095" data-name="Group 2095" transform="translate(118.529 107.617)">
        <path id="Path_2649" data-name="Path 2649" d="M1471.172,512.684a1.262,1.262,0,0,0,1.262-1.263V440.99c0-2.466-1.675-4.472-3.735-4.472s-3.736,2.006-3.736,4.472v68.069a1.262,1.262,0,0,0,2.524,0V440.99c0-1.114.64-1.947,1.212-1.947s1.211.833,1.211,1.947v70.432A1.263,1.263,0,0,0,1471.172,512.684Z" transform="translate(-1464.963 -436.518)" fill="#003f6a"/>
      </g>
      <g id="Group_2096" data-name="Group 2096" transform="translate(121.074 56.241)">
        <path id="Path_2650" data-name="Path 2650" d="M1471.472,424.154c2.529,0,4.433-2.4,5.682-7.148.008-.031.015-.062.02-.095l5.711-31.347a3.063,3.063,0,0,0-.123-1.879,2.15,2.15,0,0,0-3.451-.912,3.062,3.062,0,0,0-1.046,1.588l-9.965,30.314c-.007.024-.015.048-.021.073-2.07,7.878,1.6,9.132,2.025,9.249A4.616,4.616,0,0,0,1471.472,424.154Zm3.228-7.744c-.919,3.476-1.965,4.615-2.508,4.984a1.267,1.267,0,0,1-1.167.181c-.494-.247-1.452-1.787-.313-6.149l9.351-28.443Z" transform="translate(-1467.652 -382.241)" fill="#003f6a"/>
      </g>
      <g id="Group_2097" data-name="Group 2097" transform="translate(76.432 100.007)">
        <path id="Path_2651" data-name="Path 2651" d="M1423.094,443.314a3.193,3.193,0,0,0,.668-.071l31.467-5.291.075-.014c7.936-1.835,7.337-5.667,7.243-6.1a3.8,3.8,0,0,0-2-2.687c-1.611-.857-4.026-.9-7.379-.12-.032.008-.063.016-.094.026l-30.4,9.536a2.611,2.611,0,0,0-2.133,2.943h0a2.258,2.258,0,0,0,1.328,1.521A2.993,2.993,0,0,0,1423.094,443.314Zm31.678-7.845-29.526,4.965,28.541-8.953c3.505-.8,5-.408,5.579-.1a1.266,1.266,0,0,1,.7.949C1460.079,432.881,1459.163,434.446,1454.772,435.468Z" transform="translate(-1420.489 -428.478)" fill="#003f6a"/>
      </g>
      <g id="Group_2098" data-name="Group 2098" transform="translate(125.77 104.174)">
        <path id="Path_2652" data-name="Path 2652" d="M1500.776,466.712a2.151,2.151,0,0,0,1.424-.511,2.256,2.256,0,0,0,.729-1.882,3.069,3.069,0,0,0-.717-1.761l-19.33-25.388c-.016-.021-.032-.041-.048-.06-5.319-6.171-8.431-3.856-8.768-3.572-2.44,2.1-1.8,5.332,1.878,9.6l.066.071,22.593,22.47A2.964,2.964,0,0,0,1500.776,466.712Zm-19.88-27.981,18.138,23.822-21.208-21.094c-2.343-2.727-2.688-4.234-2.686-4.891a1.271,1.271,0,0,1,.512-1.064C1476.136,435.238,1477.948,435.321,1480.9,438.731Z" transform="translate(-1472.612 -432.88)" fill="#003f6a"/>
      </g>
      <g id="Group_2099" data-name="Group 2099" transform="translate(118.503 98.03)">
        <path id="Path_2653" data-name="Path 2653" d="M1469.356,435.232a4.421,4.421,0,1,0-4.421-4.421A4.426,4.426,0,0,0,1469.356,435.232Zm0-6.318a1.9,1.9,0,1,1-1.9,1.9A1.9,1.9,0,0,1,1469.356,428.913Z" transform="translate(-1464.935 -426.389)" fill="#003f6a"/>
      </g>
      <g id="Group_2100" data-name="Group 2100" transform="translate(210.807 126.199)">
        <path id="Path_2654" data-name="Path 2654" d="M1569.864,557.591h40.411c5.457,0,7.392-1.882,7.392-7.192V465.952a9.815,9.815,0,0,0-9.8-9.8h-35.609a9.814,9.814,0,0,0-9.8,9.8V550.9C1562.451,556.589,1564.841,557.591,1569.864,557.591Zm38-98.917a7.287,7.287,0,0,1,7.279,7.279V550.4c0,3.926-.773,4.668-4.867,4.668h-40.411c-4.34,0-4.888-.468-4.888-4.167V465.952a7.287,7.287,0,0,1,7.279-7.279Z" transform="translate(-1562.451 -456.149)" fill="#003f6a"/>
      </g>
      <g id="Group_2101" data-name="Group 2101" transform="translate(217.746 134.343)">
        <path id="Path_2655" data-name="Path 2655" d="M1575.039,493.863h30.606a5.264,5.264,0,0,0,5.258-5.258V470.01a5.264,5.264,0,0,0-5.258-5.258h-30.606a5.264,5.264,0,0,0-5.258,5.258V488.6A5.264,5.264,0,0,0,1575.039,493.863Zm30.606-26.586a2.737,2.737,0,0,1,2.734,2.734V488.6a2.737,2.737,0,0,1-2.734,2.734h-30.606a2.737,2.737,0,0,1-2.734-2.734V470.01a2.737,2.737,0,0,1,2.734-2.734Z" transform="translate(-1569.781 -464.752)" fill="#003f6a"/>
      </g>
      <g id="Group_2102" data-name="Group 2102" transform="translate(204.011 225.117)">
        <path id="Path_2656" data-name="Path 2656" d="M1558.2,574.268h62.354a2.933,2.933,0,0,0,2.93-2.93v-7.758a2.933,2.933,0,0,0-2.93-2.93H1558.2a2.932,2.932,0,0,0-2.93,2.93v7.758A2.933,2.933,0,0,0,1558.2,574.268Zm62.354-11.093a.411.411,0,0,1,.406.405v7.758a.411.411,0,0,1-.406.405H1558.2a.411.411,0,0,1-.405-.405v-7.758a.41.41,0,0,1,.405-.405Z" transform="translate(-1555.271 -560.651)" fill="#003f6a"/>
      </g>
    </g>
    <g id="Group_2135" data-name="Group 2135" transform="translate(1228.941 279)">
      <g id="Group_2105" data-name="Group 2105" transform="translate(11.193 11.898)">
        <g id="Group_2104" data-name="Group 2104">
          <path id="Path_2657" data-name="Path 2657" d="M1263.793,308.642a15.432,15.432,0,0,0,15.246,15.246c8.408.129,15.122-7.033,15.248-15.246.128-8.407-7.034-15.121-15.248-15.246-8.407-.129-15.12,7.033-15.246,15.246a.9.9,0,0,1-1.8,0,17.05,17.05,0,1,1,7.133,13.866,17.3,17.3,0,0,1-7.133-13.866A.9.9,0,0,1,1263.793,308.642Z" transform="translate(-1261.99 -291.57)" fill="#003f6a"/>
        </g>
      </g>
      <g id="Group_2134" data-name="Group 2134" transform="translate(0)">
        <g id="Group_2107" data-name="Group 2107" transform="translate(41.896 10.587)">
          <g id="Group_2106" data-name="Group 2106">
            <path id="Path_2658" data-name="Path 2658" d="M1303.334,291.674l-7.323,5.881c-.9.72-2.182-.547-1.275-1.275l7.323-5.881c.9-.72,2.182.547,1.275,1.275Z" transform="translate(-1294.427 -290.185)" fill="#003f6a"/>
          </g>
        </g>
        <g id="Group_2109" data-name="Group 2109" transform="translate(35.307 2.733)">
          <g id="Group_2108" data-name="Group 2108">
            <path id="Path_2659" data-name="Path 2659" d="M1287.572,290.649l4.22-8.305c.526-1.037,2.083-.124,1.557.91l-4.22,8.306c-.527,1.036-2.083.124-1.557-.911Z" transform="translate(-1287.465 -281.888)" fill="#003f6a"/>
          </g>
        </g>
        <g id="Group_2111" data-name="Group 2111" transform="translate(45.42 32.157)">
          <g id="Group_2110" data-name="Group 2110">
            <path id="Path_2660" data-name="Path 2660" d="M1308.076,316.855l-9.279-2.117c-1.134-.259-.653-2,.479-1.739l9.279,2.117c1.134.259.653,2-.479,1.739Z" transform="translate(-1298.149 -312.972)" fill="#003f6a"/>
          </g>
        </g>
        <g id="Group_2113" data-name="Group 2113" transform="translate(45.458 21.79)">
          <g id="Group_2112" data-name="Group 2112">
            <path id="Path_2661" data-name="Path 2661" d="M1298.837,304.155l9.241-2.109c1.132-.258,1.613,1.479.479,1.738l-9.241,2.11c-1.132.258-1.613-1.48-.479-1.739Z" transform="translate(-1298.189 -302.02)" fill="#003f6a"/>
          </g>
        </g>
        <g id="Group_2115" data-name="Group 2115" transform="translate(27.335)">
          <g id="Group_2114" data-name="Group 2114">
            <path id="Path_2662" data-name="Path 2662" d="M1280.846,279.872v9.776a.9.9,0,0,1-1.8,0v-9.776a.9.9,0,0,1,1.8,0Z" transform="translate(-1279.043 -279)" fill="#003f6a"/>
          </g>
        </g>
        <g id="Group_2117" data-name="Group 2117" transform="translate(15.184 2.727)">
          <g id="Group_2116" data-name="Group 2116">
            <path id="Path_2663" data-name="Path 2663" d="M1270.3,291.56l-4-8.306c-.5-1.042,1.053-1.957,1.557-.91l4,8.305c.5,1.043-1.052,1.957-1.557.911Z" transform="translate(-1266.206 -281.881)" fill="#003f6a"/>
          </g>
        </g>
        <g id="Group_2119" data-name="Group 2119" transform="translate(41.895 39.726)">
          <g id="Group_2118" data-name="Group 2118">
            <path id="Path_2664" data-name="Path 2664" d="M1302.059,328.3l-7.323-5.839c-.91-.725.375-1.992,1.275-1.275l7.323,5.839c.909.725-.376,1.993-1.275,1.275Z" transform="translate(-1294.425 -320.969)" fill="#003f6a"/>
          </g>
        </g>
        <g id="Group_2121" data-name="Group 2121" transform="translate(0 32.157)">
          <g id="Group_2120" data-name="Group 2120">
            <path id="Path_2665" data-name="Path 2665" d="M1250.812,315.116l9.28-2.117c1.132-.258,1.612,1.479.479,1.739l-9.279,2.117c-1.132.258-1.613-1.479-.48-1.739Z" transform="translate(-1250.165 -312.972)" fill="#003f6a"/>
          </g>
        </g>
        <g id="Group_2123" data-name="Group 2123" transform="translate(5.358 39.41)">
          <g id="Group_2122" data-name="Group 2122">
            <path id="Path_2666" data-name="Path 2666" d="M1265.13,322.123l-7.719,6.155c-.9.717-2.185-.55-1.275-1.275l7.719-6.155c.9-.717,2.184.55,1.275,1.275Z" transform="translate(-1255.825 -320.635)" fill="#003f6a"/>
          </g>
        </g>
        <g id="Group_2125" data-name="Group 2125" transform="translate(0 21.79)">
          <g id="Group_2124" data-name="Group 2124">
            <path id="Path_2667" data-name="Path 2667" d="M1260.092,305.9l-9.28-2.118c-1.133-.259-.652-2,.48-1.738l9.279,2.118c1.133.258.653,2-.479,1.739Z" transform="translate(-1250.165 -302.02)" fill="#003f6a"/>
          </g>
        </g>
        <g id="Group_2127" data-name="Group 2127" transform="translate(5.358 10.589)">
          <g id="Group_2126" data-name="Group 2126">
            <path id="Path_2668" data-name="Path 2668" d="M1257.411,290.4l7.374,5.881c.908.725-.376,1.992-1.275,1.275l-7.374-5.881c-.91-.724.376-1.992,1.275-1.275Z" transform="translate(-1255.825 -290.187)" fill="#003f6a"/>
          </g>
        </g>
        <g id="Group_2129" data-name="Group 2129" transform="translate(15.184 44.53)">
          <g id="Group_2128" data-name="Group 2128">
            <path id="Path_2669" data-name="Path 2669" d="M1266.3,335.269l4.22-8.762c.5-1.048,2.059-.132,1.557.91l-4.22,8.763c-.5,1.047-2.059.133-1.557-.911Z" transform="translate(-1266.206 -326.044)" fill="#003f6a"/>
          </g>
        </g>
        <g id="Group_2131" data-name="Group 2131" transform="translate(27.335 46.445)">
          <g id="Group_2130" data-name="Group 2130">
            <path id="Path_2670" data-name="Path 2670" d="M1280.846,328.94v9.665a.9.9,0,0,1-1.8,0V328.94a.9.9,0,0,1,1.8,0Z" transform="translate(-1279.043 -328.067)" fill="#003f6a"/>
          </g>
        </g>
        <g id="Group_2133" data-name="Group 2133" transform="translate(35.308 44.946)">
          <g id="Group_2132" data-name="Group 2132">
            <path id="Path_2671" data-name="Path 2671" d="M1291.792,336.2l-4.22-8.351c-.523-1.036,1.032-1.949,1.557-.911l4.219,8.352c.523,1.035-1.033,1.948-1.557.911Z" transform="translate(-1287.466 -326.484)" fill="#003f6a"/>
          </g>
        </g>
      </g>
    </g>
    <g id="Group_2136" data-name="Group 2136" transform="translate(1296.451 304.273)">
      <path id="Path_2672" data-name="Path 2672" d="M1569.2,435.79h0a.179.179,0,0,0,.179-.181l-.026-4.328a.181.181,0,0,0-.181-.179h0a.179.179,0,0,0-.179.181l.026,4.328A.18.18,0,0,0,1569.2,435.79Zm-.051-8.654h0a.182.182,0,0,0,.18-.182l-.027-4.328a.18.18,0,1,0-.36,0l.027,4.327A.18.18,0,0,0,1569.154,427.135Zm-.051-8.655h0a.18.18,0,0,0,.179-.181l-.025-4.328a.181.181,0,0,0-.181-.18h0a.181.181,0,0,0-.179.182l.026,4.328A.181.181,0,0,0,1569.1,418.48Zm-.052-8.654h0a.18.18,0,0,0,.179-.182l-.026-4.328a.183.183,0,0,0-.181-.179.18.18,0,0,0-.18.181l.026,4.328A.18.18,0,0,0,1569.05,409.825ZM1569,401.17h0a.18.18,0,0,0,.179-.182l-.026-4.327a.181.181,0,0,0-.18-.18h0a.18.18,0,0,0-.178.182l.026,4.328A.181.181,0,0,0,1569,401.17Zm-.052-8.655h0a.179.179,0,0,0,.178-.181l-.026-4.328a.184.184,0,0,0-.182-.179.179.179,0,0,0-.179.181l.026,4.328A.18.18,0,0,0,1568.947,392.515Zm-.051-8.654h0a.181.181,0,0,0,.18-.182l-.026-4.328a.18.18,0,0,0-.18-.179h0a.18.18,0,0,0-.18.182l.026,4.327A.18.18,0,0,0,1568.9,383.86Zm-.052-8.655h0a.18.18,0,0,0,.18-.181L1569,370.7a.186.186,0,0,0-.182-.18.18.18,0,0,0-.179.182l.025,4.328A.18.18,0,0,0,1568.844,375.205Zm-.051-8.654h0a.182.182,0,0,0,.18-.182l-.027-4.328a.179.179,0,0,0-.18-.179h0a.181.181,0,0,0-.18.181l.026,4.328A.18.18,0,0,0,1568.793,366.551Zm-.051-8.655h0a.18.18,0,0,0,.179-.182l-.026-4.327a.17.17,0,0,0-.181-.18.181.181,0,0,0-.18.182l.026,4.328A.181.181,0,0,0,1568.742,357.9Zm-.052-8.655h0a.179.179,0,0,0,.18-.181l-.026-4.328a.18.18,0,0,0-.18-.179h0a.181.181,0,0,0-.18.181l.026,4.328A.181.181,0,0,0,1568.69,349.24Zm-.051-8.654h0a.181.181,0,0,0,.179-.182l-.026-4.328a.171.171,0,0,0-.181-.179.18.18,0,0,0-.18.182l.026,4.327A.181.181,0,0,0,1568.639,340.585Zm-.052-8.655h0a.18.18,0,0,0,.18-.182l-.026-4.327a.181.181,0,0,0-.181-.18h0a.181.181,0,0,0-.179.182l.026,4.328A.181.181,0,0,0,1568.587,331.93Zm-.051-8.655h0a.181.181,0,0,0,.18-.181l-.026-4.328a.17.17,0,0,0-.181-.179.18.18,0,0,0-.18.181l.027,4.328A.179.179,0,0,0,1568.535,323.275Zm-.051-8.654h0a.181.181,0,0,0,.179-.182l-.025-4.328a.181.181,0,0,0-.181-.179h0a.181.181,0,0,0-.18.182l.026,4.327A.181.181,0,0,0,1568.484,314.62ZM1321.666,306.3h0l4.328,0a.18.18,0,0,0,0-.361h0l-4.328,0a.18.18,0,0,0,0,.361Zm8.655-.008h0l4.327,0a.18.18,0,1,0,0-.361h0l-4.327,0a.18.18,0,0,0,0,.361Zm8.655-.008h0l4.328,0a.18.18,0,0,0,0-.36h0l-4.328,0a.18.18,0,0,0,0,.361Zm8.655-.009h0l4.328,0a.181.181,0,0,0,0-.362h0l-4.328,0a.18.18,0,1,0,0,.361Zm8.655-.008h0l4.328,0a.18.18,0,1,0,0-.36h0l-4.327,0a.18.18,0,1,0,0,.361Zm8.654-.009h0l4.328,0a.18.18,0,0,0,0-.361h0l-4.328,0a.18.18,0,0,0,0,.361Zm8.656-.009h0l4.327,0a.18.18,0,0,0,0-.361h0l-4.328,0a.18.18,0,1,0,0,.361Zm8.655-.008h0l4.328,0a.18.18,0,0,0,0-.361h0l-4.328,0a.18.18,0,1,0,0,.361Zm8.656-.008h0l4.327,0a.18.18,0,0,0,0-.361h0l-4.327,0a.18.18,0,1,0,0,.361Zm8.654-.009h0l4.328,0a.18.18,0,1,0,0-.361h0l-4.328,0a.18.18,0,0,0,0,.361Zm8.655-.009h0l4.327,0a.18.18,0,0,0,0-.361h0l-4.327,0a.18.18,0,0,0,0,.361Zm8.655-.009h0l4.328,0a.18.18,0,1,0,0-.361h0l-4.328,0a.18.18,0,0,0,0,.361Zm8.654-.009h0l4.328,0a.18.18,0,0,0,0-.361h0l-4.328,0a.18.18,0,0,0,0,.361Zm8.655-.008h0l4.328,0a.18.18,0,1,0,0-.361h0l-4.328,0a.18.18,0,0,0,0,.361Zm8.656-.009h0l4.328,0a.18.18,0,0,0,0-.361h0l-4.327,0a.18.18,0,1,0,0,.361Zm8.656-.008h0l4.327,0a.18.18,0,0,0,0-.361h0l-4.328,0a.18.18,0,0,0,0,.361Zm8.654-.009h0l4.327,0a.18.18,0,1,0,0-.361h0l-4.328,0a.18.18,0,0,0,0,.36Zm8.655-.009h0l4.327,0a.18.18,0,1,0,0-.361h0l-4.328,0a.18.18,0,0,0,0,.361Zm8.655-.008h0l4.328,0a.18.18,0,0,0,0-.361h0l-4.328,0a.18.18,0,1,0,0,.361Zm8.655-.009h0l4.328,0a.18.18,0,0,0,0-.361h0l-4.328,0a.18.18,0,1,0,0,.361Zm8.655-.008h0l4.328,0a.18.18,0,0,0,0-.361h0l-4.328,0a.18.18,0,0,0,0,.361Zm8.656-.009h0l4.328,0a.18.18,0,0,0,0-.361h0l-4.328,0a.18.18,0,0,0,0,.361Zm8.656-.008h0l4.327,0a.18.18,0,1,0,0-.361h0l-4.327,0a.18.18,0,0,0,0,.361Zm8.655-.009h0l4.328,0a.18.18,0,0,0,0-.361h0l-4.327,0a.18.18,0,1,0,0,.361Zm8.655-.009h0l4.327,0a.18.18,0,1,0,0-.361h0l-4.328,0a.18.18,0,0,0,0,.361Zm8.654-.008h0l4.328,0a.18.18,0,0,0,0-.361h0l-4.328,0a.18.18,0,0,0,0,.361Zm8.655-.009h0l4.327,0a.18.18,0,1,0,0-.36h0l-4.328,0a.18.18,0,0,0,0,.361Zm8.655-.009h0l4.328,0a.18.18,0,0,0,0-.361h0l-4.328,0a.18.18,0,1,0,0,.361Zm8.656-.008h0l4.328,0a.18.18,0,0,0,0-.361h0l-4.327,0a.18.18,0,0,0,0,.361Z" transform="translate(-1321.486 -305.7)" fill="#003f6a"/>
    </g>
    <g id="Group_2137" data-name="Group 2137" transform="translate(1281.378 391.378)">
      <path id="Path_2673" data-name="Path 2673" d="M1322.738,440.129a.9.9,0,0,0,.836-1.238l-6.754-16.808h7.851a.9.9,0,0,0,.754-1.4L1310.6,398.129a.9.9,0,0,0-1.61.775l5.736,17.509h-8.262a.9.9,0,0,0-.724,1.439l16.274,21.913A.9.9,0,0,0,1322.738,440.129ZM1323,420.28h-7.513a.9.9,0,0,0-.837,1.238l4.647,11.564-11.041-14.866h7.714a.9.9,0,0,0,.857-1.182l-4.016-12.258Z" transform="translate(-1305.562 -397.722)" fill="#003f6a"/>
    </g>
    <g id="Group_2138" data-name="Group 2138" transform="translate(1208.006 447.487)">
      <path id="Path_2674" data-name="Path 2674" d="M1228.229,528.262c.1,0,.18-.048.18-.109v-2.631c0-.061-.08-.11-.18-.11s-.181.049-.181.11v2.631C1228.048,528.214,1228.129,528.262,1228.229,528.262Zm0-5.262c.1,0,.18-.049.18-.11v-2.631c0-.061-.08-.11-.18-.11s-.181.049-.181.11v2.631C1228.048,522.951,1228.129,523,1228.229,523Zm0-5.263c.1,0,.18-.049.18-.11V515c0-.061-.08-.11-.18-.11s-.181.049-.181.11v2.631C1228.048,517.688,1228.129,517.737,1228.229,517.737Zm0-5.262c.1,0,.18-.049.18-.11v-2.632c0-.061-.08-.11-.18-.11s-.181.049-.181.11v2.632C1228.048,512.426,1228.129,512.475,1228.229,512.475Zm0-5.263c.1,0,.18-.049.18-.11v-2.631c0-.061-.08-.109-.18-.109s-.181.048-.181.109V507.1C1228.048,507.163,1228.129,507.212,1228.229,507.212Zm0-5.263c.1,0,.18-.048.18-.109v-2.631c0-.061-.08-.11-.18-.11s-.181.049-.181.11v2.631C1228.048,501.9,1228.129,501.949,1228.229,501.949Zm0-5.262c.1,0,.18-.049.18-.11v-2.631c0-.061-.08-.11-.18-.11s-.181.049-.181.11v2.631C1228.048,496.638,1228.129,496.687,1228.229,496.687Zm0-5.263c.1,0,.18-.049.18-.11v-2.63c0-.061-.08-.11-.18-.11s-.181.049-.181.11v2.63C1228.048,491.375,1228.129,491.425,1228.229,491.425Zm0-5.262c.1,0,.18-.049.18-.11v-2.631c0-.061-.08-.11-.18-.11s-.181.049-.181.11v2.631C1228.048,486.113,1228.129,486.163,1228.229,486.163Zm0-5.263c.1,0,.18-.049.18-.11v-2.631c0-.061-.08-.109-.18-.109s-.181.048-.181.109v2.631C1228.048,480.85,1228.129,480.9,1228.229,480.9Zm0-5.262c.1,0,.18-.049.18-.11V472.9c0-.061-.08-.11-.18-.11s-.181.049-.181.11v2.631C1228.048,475.589,1228.129,475.638,1228.229,475.638Zm0-5.263c.1,0,.18-.049.18-.11v-2.631c0-.061-.08-.11-.18-.11s-.181.049-.181.11v2.631C1228.048,470.326,1228.129,470.375,1228.229,470.375Zm0-5.263c.1,0,.18-.049.18-.11v-2.631c0-.061-.08-.11-.18-.11s-.181.049-.181.11V465C1228.048,465.063,1228.129,465.112,1228.229,465.112Zm0-5.262c.1,0,.18-.049.18-.11v-2.631c0-.061-.08-.11-.18-.11s-.181.049-.181.11v2.631C1228.048,459.8,1228.129,459.85,1228.229,459.85Z" transform="translate(-1228.048 -456.999)"/>
    </g>
    <g id="Group_2139" data-name="Group 2139" transform="translate(1364.349 327.25)">
      <path id="Path_2675" data-name="Path 2675" d="M1395.35,352.61h.054a.9.9,0,0,0,.846-.953l-1.23-20.833a.9.9,0,1,0-1.8.106l1.23,20.833A.9.9,0,0,0,1395.35,352.61Z" transform="translate(-1393.218 -329.974)" fill="#003f6a"/>
    </g>
    <g id="Group_2140" data-name="Group 2140" transform="translate(1354.166 327.25)">
      <path id="Path_2676" data-name="Path 2676" d="M1383.362,352.61a.9.9,0,0,0,.9-.848l1.229-20.833a.9.9,0,0,0-1.8-.106l-1.229,20.833a.9.9,0,0,0,.846.953Z" transform="translate(-1382.46 -329.974)" fill="#003f6a"/>
    </g>
    <g id="Group_2141" data-name="Group 2141" transform="translate(1345.714 334.369)">
      <path id="Path_2677" data-name="Path 2677" d="M1374.432,339.3h27.99a.9.9,0,0,0,0-1.8h-27.99a.9.9,0,0,0,0,1.8Z" transform="translate(-1373.531 -337.495)" fill="#003f6a"/>
    </g>
    <g id="Group_2142" data-name="Group 2142" transform="translate(1344.96 341.592)">
      <path id="Path_2678" data-name="Path 2678" d="M1373.635,346.929h29.5a.9.9,0,0,0,0-1.8h-29.5a.9.9,0,0,0,0,1.8Z" transform="translate(-1372.734 -345.126)" fill="#003f6a"/>
    </g>
    <g id="Group_2143" data-name="Group 2143" transform="translate(1358.556 348.083)">
      <path id="Path_2679" data-name="Path 2679" d="M1388,358.756h2.7a.9.9,0,0,0,.9-.9v-4.969a.9.9,0,0,0-.9-.9H1388a.9.9,0,0,0-.9.9v4.969A.9.9,0,0,0,1388,358.756Zm1.8-1.8h-.9v-3.166h.9Z" transform="translate(-1387.098 -351.983)" fill="#003f6a"/>
    </g>
    <g id="Group_2144" data-name="Group 2144" transform="translate(1344.282 327.25)">
      <path id="Path_2680" data-name="Path 2680" d="M1372.919,352.61h30.854a.9.9,0,0,0,.9-.995l-2.176-20.833a.9.9,0,0,0-.9-.808h-26.5a.9.9,0,0,0-.9.808l-2.176,20.833a.9.9,0,0,0,.9.995Zm29.854-1.8H1373.92l1.987-19.03h24.877Z" transform="translate(-1372.018 -329.974)" fill="#003f6a"/>
    </g>
    <g id="Group_2145" data-name="Group 2145" transform="translate(1352.99 353.052)">
      <path id="Path_2681" data-name="Path 2681" d="M1382.118,362.259h13.835a.9.9,0,0,0,.9-.9,4.129,4.129,0,0,0-4.125-4.124h-7.389a4.129,4.129,0,0,0-4.124,4.124A.9.9,0,0,0,1382.118,362.259Zm12.751-1.8H1383.2a2.326,2.326,0,0,1,2.139-1.42h7.389A2.325,2.325,0,0,1,1394.869,360.456Z" transform="translate(-1381.217 -357.233)" fill="#003f6a"/>
    </g>
    <g id="Group_2146" data-name="Group 2146" transform="translate(1309.91 418.769)">
      <path id="Path_2682" data-name="Path 2682" d="M1335.886,427.021h4.328a.18.18,0,0,0,0-.361h-4.328a.18.18,0,1,0,0,.361Zm8.656,0h4.327a.18.18,0,0,0,0-.361h-4.327a.18.18,0,1,0,0,.361Zm8.654,0h4.328a.18.18,0,1,0,0-.361H1353.2a.18.18,0,0,0,0,.361Zm8.655,0h4.328a.18.18,0,1,0,0-.361h-4.328a.18.18,0,0,0,0,.361Zm8.655,0h4.328a.18.18,0,0,0,0-.361h-4.328a.18.18,0,1,0,0,.361Zm8.655,0h4.328a.18.18,0,0,0,0-.361h-4.328a.18.18,0,1,0,0,.361Zm8.655,0h4.327a.18.18,0,1,0,0-.361h-4.327a.18.18,0,1,0,0,.361Zm8.655,0h4.327a.18.18,0,1,0,0-.361h-4.327a.18.18,0,0,0,0,.361Zm8.655,0h4.327a.18.18,0,0,0,0-.361h-4.327a.18.18,0,1,0,0,.361Zm8.655,0h4.328a.18.18,0,0,0,0-.361h-4.328a.18.18,0,1,0,0,.361Zm8.656,0h4.328a.18.18,0,0,0,0-.361h-4.328a.18.18,0,1,0,0,.361Zm8.654,0h4.328a.18.18,0,1,0,0-.361h-4.328a.18.18,0,0,0,0,.361Z" transform="translate(-1335.705 -426.66)" fill="#003f6a"/>
    </g>
    <g id="Group_2147" data-name="Group 2147" transform="translate(1261.625 344.796)">
      <path id="Path_2683" data-name="Path 2683" d="M1403.161,494.566a.181.181,0,0,0,.181-.181v-4.327a.181.181,0,0,0-.362,0v4.327A.181.181,0,0,0,1403.161,494.566Zm0-8.655a.181.181,0,0,0,.181-.18V481.4a.181.181,0,1,0-.362,0v4.328A.18.18,0,0,0,1403.161,485.911Zm0-8.654a.182.182,0,0,0,.181-.181v-4.328a.181.181,0,0,0-.362,0v4.328A.181.181,0,0,0,1403.161,477.257Zm0-8.655a.182.182,0,0,0,.181-.181v-4.328a.181.181,0,0,0-.362,0v4.328A.181.181,0,0,0,1403.161,468.6Zm0-8.655a.181.181,0,0,0,.181-.181v-4.328a.181.181,0,0,0-.362,0v4.328A.181.181,0,0,0,1403.161,459.946Zm0-8.655a.181.181,0,0,0,.181-.18v-4.328a.181.181,0,0,0-.362,0v4.328A.18.18,0,0,0,1403.161,451.29Zm0-8.655a.181.181,0,0,0,.181-.18v-4.328a.181.181,0,0,0-.362,0v4.328A.181.181,0,0,0,1403.161,442.635Zm0-8.655a.181.181,0,0,0,.181-.18v-4.328a.181.181,0,0,0-.362,0V433.8A.181.181,0,0,0,1403.161,433.98Zm0-8.655a.182.182,0,0,0,.181-.181v-4.328a.181.181,0,0,0-.362,0v4.328A.181.181,0,0,0,1403.161,425.325Zm0-8.655a.181.181,0,0,0,.181-.181v-4.327a.181.181,0,0,0-.362,0v4.327A.181.181,0,0,0,1403.161,416.67Zm0-8.655a.181.181,0,0,0,.181-.18v-4.328a.181.181,0,0,0-.362,0v4.328A.181.181,0,0,0,1403.161,408.015Zm0-8.655a.181.181,0,0,0,.181-.18v-4.328a.181.181,0,0,0-.362,0v4.328A.18.18,0,0,0,1403.161,399.359Zm0-8.654a.182.182,0,0,0,.181-.181V386.2a.181.181,0,0,0-.362,0v4.328A.181.181,0,0,0,1403.161,390.7Zm0-8.655a.181.181,0,0,0,.181-.181v-4.327a.181.181,0,0,0-.362,0v4.327A.181.181,0,0,0,1403.161,382.05Zm0-8.655a.181.181,0,0,0,.181-.18v-4.328a.181.181,0,0,0-.362,0v4.328A.18.18,0,0,0,1403.161,373.394Zm-118.287-5.243h2.358a.18.18,0,0,0,0-.361h-2.177V366a.18.18,0,1,0-.361,0v1.97A.18.18,0,0,0,1284.874,368.151Zm6.686,0h4.328a.18.18,0,0,0,0-.361h-4.328a.18.18,0,1,0,0,.361Zm8.655,0h4.328a.18.18,0,0,0,0-.361h-4.328a.18.18,0,1,0,0,.361Zm8.655,0h4.328a.18.18,0,1,0,0-.361h-4.328a.18.18,0,1,0,0,.361Zm8.655,0h4.327a.18.18,0,1,0,0-.361h-4.327a.18.18,0,0,0,0,.361Zm8.655,0h4.328a.18.18,0,0,0,0-.361h-4.328a.18.18,0,1,0,0,.361Zm8.655,0h4.328a.18.18,0,0,0,0-.361h-4.328a.18.18,0,1,0,0,.361Zm8.654,0h4.328a.18.18,0,1,0,0-.361h-4.328a.18.18,0,0,0,0,.361Zm8.656,0h4.328a.18.18,0,1,0,0-.361h-4.328a.18.18,0,0,0,0,.361Zm8.655,0h4.328a.18.18,0,0,0,0-.361H1360.8a.18.18,0,0,0,0,.361Zm8.655,0h4.328a.18.18,0,0,0,0-.361h-4.328a.18.18,0,1,0,0,.361Zm8.656,0h4.326a.18.18,0,1,0,0-.361h-4.326a.18.18,0,1,0,0,.361Zm8.654,0h4.328a.18.18,0,1,0,0-.361h-4.328a.18.18,0,0,0,0,.361Zm8.655,0h4.328a.18.18,0,0,0,0-.361h-4.328a.18.18,0,0,0,0,.361Zm-110.547-6.3a.181.181,0,0,0,.181-.18v-4.328a.18.18,0,0,0-.361,0v4.328A.18.18,0,0,0,1284.874,361.854Zm0-8.654a.181.181,0,0,0,.181-.181v-4.328a.18.18,0,0,0-.361,0v4.328A.181.181,0,0,0,1284.874,353.2Z" transform="translate(-1284.694 -348.511)" fill="#003f6a"/>
    </g>
    <g id="Group_2148" data-name="Group 2148" transform="translate(1120.128 446.472)">
      <path id="Path_2684" data-name="Path 2684" d="M1158.021,485.57a.569.569,0,0,1-.449-.219l-22.243-28.509a.567.567,0,1,1,.894-.7l22.244,28.509a.568.568,0,0,1-.447.917Z" transform="translate(-1135.208 -455.927)" fill="#003f6a"/>
    </g>
    <g id="Group_2149" data-name="Group 2149" transform="translate(1110.594 446.472)">
      <path id="Path_2685" data-name="Path 2685" d="M1147.949,485.57a.568.568,0,0,1-.448-.219l-22.244-28.509a.568.568,0,0,1,.9-.7l22.243,28.509a.567.567,0,0,1-.447.917Z" transform="translate(-1125.137 -455.927)" fill="#003f6a"/>
    </g>
    <g id="Group_2150" data-name="Group 2150" transform="translate(1128.162 445.904)">
      <path id="Path_2686" data-name="Path 2686" d="M1167.079,486.105a1.132,1.132,0,0,1-.9-.436l-22.247-28.508a1.135,1.135,0,0,1,1.79-1.4l22.247,28.509a1.136,1.136,0,0,1-.894,1.833Z" transform="translate(-1143.696 -455.327)" fill="#003f6a"/>
    </g>
    <g id="Group_2151" data-name="Group 2151" transform="translate(1403.052 454.316)">
      <path id="Path_2687" data-name="Path 2687" d="M1444.509,474.557c-.016-.01-.032-.019-.047-.03a52.419,52.419,0,0,1-10.265-9.649.407.407,0,0,1,.633-.513,51.576,51.576,0,0,0,10.105,9.5.408.408,0,0,1-.426.693Z" transform="translate(-1434.105 -464.214)" fill="#003f6a"/>
    </g>
    <g id="Group_2152" data-name="Group 2152" transform="translate(1395.141 381.46)">
      <path id="Path_2688" data-name="Path 2688" d="M1455.863,387.244a.414.414,0,0,1,.131.806,52.636,52.636,0,0,0-29.471,24.512.414.414,0,0,1-.724-.4,53.465,53.465,0,0,1,29.933-24.9A.389.389,0,0,1,1455.863,387.244Z" transform="translate(-1425.748 -387.244)" fill="#003f6a"/>
    </g>
    <g id="Group_2153" data-name="Group 2153" transform="translate(1539.078 336.53)">
      <path id="Path_2689" data-name="Path 2689" d="M1578.178,402.453a.426.426,0,0,1,.02-.447,54.362,54.362,0,0,0,2.508-57c-.864-1.561-1.813-3.092-2.819-4.554a.428.428,0,0,1,.705-.486c1.021,1.484,1.984,3.039,2.863,4.625a55.414,55.414,0,0,1-2.547,57.9.428.428,0,0,1-.594.115A.436.436,0,0,1,1578.178,402.453Z" transform="translate(-1577.811 -339.778)" fill="#003f6a"/>
    </g>
    <g id="Group_2154" data-name="Group 2154" transform="translate(1431.873 310.749)">
      <path id="Path_2690" data-name="Path 2690" d="M1464.61,349.09a.447.447,0,0,1-.022-.386,58.065,58.065,0,0,1,71.769-33.3.449.449,0,1,1-.277.854,57.22,57.22,0,0,0-70.661,32.787.45.45,0,0,1-.809.047Z" transform="translate(-1464.554 -312.541)" fill="#003f6a"/>
    </g>
    <g id="Group_2155" data-name="Group 2155" transform="translate(1442.344 321.027)">
      <path id="Path_2691" data-name="Path 2691" d="M1475.672,351.363a.448.448,0,0,1-.014-.406,47.861,47.861,0,0,1,48.216-27.3.449.449,0,1,1-.093.893,46.965,46.965,0,0,0-47.31,26.788.448.448,0,0,1-.8.027Z" transform="translate(-1475.616 -323.4)" fill="#003f6a"/>
    </g>
    <g id="Group_2156" data-name="Group 2156" transform="translate(1407.864 445.129)">
      <path id="Path_2692" data-name="Path 2692" d="M1447.1,464.01a.485.485,0,0,1-.078-.053,43.143,43.143,0,0,1-7.762-8.815.407.407,0,1,1,.679-.451,42.3,42.3,0,0,0,7.616,8.649.408.408,0,0,1-.455.67Z" transform="translate(-1439.189 -454.508)" fill="#003f6a"/>
    </g>
    <g id="Group_2157" data-name="Group 2157" transform="translate(1403.587 391.646)">
      <path id="Path_2693" data-name="Path 2693" d="M1456.144,398.005a.413.413,0,0,1,.16.794,43.567,43.567,0,0,0-20.86,18.633.413.413,0,1,1-.72-.406,44.4,44.4,0,0,1,21.259-18.989A.42.42,0,0,1,1456.144,398.005Z" transform="translate(-1434.671 -398.005)" fill="#003f6a"/>
    </g>
    <g id="Group_2158" data-name="Group 2158" transform="translate(1519.781 348.588)">
      <path id="Path_2694" data-name="Path 2694" d="M1557.478,409.332a.427.427,0,0,1,.128-.557,44.616,44.616,0,0,0,14.818-55.648.428.428,0,0,1,.776-.363,45.634,45.634,0,0,1-15.1,56.713.429.429,0,0,1-.6-.106A.325.325,0,0,1,1557.478,409.332Z" transform="translate(-1557.424 -352.516)" fill="#003f6a"/>
    </g>
    <g id="Group_2159" data-name="Group 2159" transform="translate(853 537.592)">
      <path id="Path_2695" data-name="Path 2695" d="M870.285,571.636a1.136,1.136,0,0,1-1.127-1,9.641,9.641,0,0,0-14.446-7.175,1.135,1.135,0,0,1-1.151-1.958,11.916,11.916,0,0,1,17.394,6.712,19.324,19.324,0,0,1,23.866-1.619,17.285,17.285,0,0,1,27.914-7.784,14.96,14.96,0,0,1,3.637-6.29,1.135,1.135,0,1,1,1.6,1.612c-1.8,1.783-2.632,3.794-3.627,7.11a1.135,1.135,0,0,1-1.927.437,15.014,15.014,0,0,0-25.812,7.068,1.135,1.135,0,0,1-1.835.647,17.056,17.056,0,0,0-23.634,1.858A1.136,1.136,0,0,1,870.285,571.636Z" transform="translate(-853 -552.191)" fill="#003f6a"/>
    </g>
    <g id="Group_2160" data-name="Group 2160" transform="translate(1161.239 458.644)">
      <path id="Path_2696" data-name="Path 2696" d="M1202.89,503.37a1.135,1.135,0,0,1-1.125-.982,22.267,22.267,0,0,0-21.988-19.168,1.135,1.135,0,1,1,0-2.271,24.562,24.562,0,0,1,23.89,19.18,17.25,17.25,0,0,1,14.809-2.655,30.554,30.554,0,0,1,53.966-17.7,17.241,17.241,0,0,1,28.652.394,15.689,15.689,0,0,1,12.49-6.239,15.53,15.53,0,0,1,11.053,4.578,1.135,1.135,0,0,1-1.606,1.605,13.274,13.274,0,0,0-9.447-3.913,13.408,13.408,0,0,0-11.577,6.694,1.136,1.136,0,0,1-2-.057,14.969,14.969,0,0,0-26.466-.539,1.137,1.137,0,0,1-1.9.128,28.058,28.058,0,0,0-22.672-11.373,28.372,28.372,0,0,0-28.279,27.983,1.134,1.134,0,0,1-1.541,1.049,14.965,14.965,0,0,0-15.492,2.981A1.131,1.131,0,0,1,1202.89,503.37Z" transform="translate(-1178.641 -468.786)" fill="#003f6a"/>
    </g>
    <line id="Line_59" data-name="Line 59" x1="107.086" y2="109.317" transform="translate(1116.253 323.745)" fill="none" stroke="#003f6a" stroke-width="1" stroke-dasharray="10 10"/>
    <line id="Line_60" data-name="Line 60" x1="126.798" y2="125.893" transform="translate(1091.533 307.397)" fill="none" stroke="#003f6a" stroke-width="1" stroke-dasharray="10 10"/>
    <line id="Line_61" data-name="Line 61" x1="100.393" y2="100.393" transform="translate(1134.101 334.9)" fill="none" stroke="#003f6a" stroke-width="1" stroke-dasharray="10 10"/>
    <line id="Line_62" data-name="Line 62" x1="95.931" y2="95.931" transform="translate(1151.949 343.824)" fill="none" stroke="#003f6a" stroke-width="1" stroke-dasharray="10 10"/>
  </g>
</svg>
