<svg xmlns="http://www.w3.org/2000/svg" xmlns:xlink="http://www.w3.org/1999/xlink" width="182.359" height="182.359" viewBox="0 0 182.359 182.359">
  <defs>
    <linearGradient id="linear-gradient" x1="0.121" y1="0.88" x2="1" gradientUnits="objectBoundingBox">
      <stop offset="0" stop-color="#4A86C3"/>
      <stop offset="1" stop-color="#4A86C3"/>
    </linearGradient>
  </defs>
  <g id="Component_2_1" data-name="Component 2 – 1" transform="translate(0.5 0.5)">
    <path id="Union_2" data-name="Union 2" d="M-10855.957-264.646a3.319,3.319,0,0,1-3.567-2.56q-3.009-9.011-6-18.025a1.548,1.548,0,0,0-1.031-1.051q-5.446-2.2-10.852-4.5a1.549,1.549,0,0,0-1.477.011q-8.335,4.2-16.693,8.356c-2.083,1.04-3.178.859-4.827-.79q-8.052-8.052-16.1-16.1c-1.569-1.57-1.756-2.7-.766-4.685q4.17-8.348,8.365-16.688a1.7,1.7,0,0,0,0-1.636q-2.292-5.36-4.454-10.774a1.54,1.54,0,0,0-1.046-1.035q-8.978-2.968-17.939-5.98a3.332,3.332,0,0,1-2.648-3.675q0-11.559,0-23.121a3.324,3.324,0,0,1,2.668-3.658c5.949-1.99,11.9-3.988,17.854-5.947a1.7,1.7,0,0,0,1.142-1.164q2.156-5.368,4.435-10.686a1.7,1.7,0,0,0-.02-1.636q-4.207-8.332-8.361-16.691c-.969-1.932-.79-3.107.722-4.619q8.142-8.146,16.287-16.288c1.477-1.474,2.665-1.66,4.545-.722,5.6,2.794,11.191,5.576,16.773,8.395a1.7,1.7,0,0,0,1.636-.005q5.273-2.26,10.6-4.394a1.771,1.771,0,0,0,1.222-1.2c1.959-5.961,3.96-11.908,5.949-17.86a3.33,3.33,0,0,1,3.686-2.632q11.563,0,23.124,0a3.311,3.311,0,0,1,3.623,2.6c2,5.98,4.006,11.957,5.977,17.945a1.613,1.613,0,0,0,1.093,1.1c3.551,1.427,7.1,2.873,10.6,4.4a2.047,2.047,0,0,0,1.962-.038q8.168-4.133,16.365-8.214c2.138-1.07,3.208-.9,4.9.793l16.1,16.1c1.521,1.523,1.715,2.692.757,4.61q-4.189,8.389-8.4,16.771a1.624,1.624,0,0,0-.014,1.556q2.3,5.4,4.49,10.854a1.464,1.464,0,0,0,.982.988q9.064,2.993,18.112,6.027a3.3,3.3,0,0,1,2.53,3.5q.009,11.695,0,23.39a3.293,3.293,0,0,1-2.53,3.5q-9.007,3.017-18.027,6.007a1.55,1.55,0,0,0-1.067,1.01q-2.19,5.45-4.493,10.854a1.637,1.637,0,0,0,.02,1.559q4.236,8.414,8.431,16.853a3.3,3.3,0,0,1-.735,4.465q-8.175,8.175-16.351,16.348a3.915,3.915,0,0,1-2.676,1.361,16.893,16.893,0,0,1-1.795-.661q-8.278-4.112-16.532-8.277a2.2,2.2,0,0,0-2.121-.03c-3.479,1.523-7,2.947-10.527,4.358a1.616,1.616,0,0,0-1.084,1.109c-1.965,5.958-3.966,11.9-5.958,17.855a3.332,3.332,0,0,1-3.655,2.676l-9.613,0Q-10849.16-264.642-10855.957-264.646Zm20.341-6.323a1.257,1.257,0,0,0,1.433-1.035c1.85-5.653,3.779-11.282,5.607-16.943a4.032,4.032,0,0,1,3-2.9,59.058,59.058,0,0,0,12.876-5.329,4.044,4.044,0,0,1,4.175-.088c5.359,2.733,10.763,5.384,16.131,8.1a1.022,1.022,0,0,0,1.425-.247q6.231-6.294,12.53-12.525a1.129,1.129,0,0,0,.225-1.578c-2.725-5.4-5.406-10.815-8.137-16.208a3.646,3.646,0,0,1,.033-3.7,64.038,64.038,0,0,0,5.573-13.447,3.66,3.66,0,0,1,2.588-2.637c5.736-1.885,11.458-3.815,17.193-5.692a1.211,1.211,0,0,0,1-1.367q-.054-8.727,0-17.454a1.256,1.256,0,0,0-1.032-1.433c-5.711-1.869-11.4-3.8-17.11-5.664a3.8,3.8,0,0,1-2.689-2.772,61.069,61.069,0,0,0-5.423-13.126,3.992,3.992,0,0,1-.053-4.095c2.723-5.332,5.365-10.706,8.071-16.046a1.14,1.14,0,0,0-.269-1.575q-6.3-6.228-12.531-12.525a1.017,1.017,0,0,0-1.43-.209c-5.45,2.753-10.922,5.458-16.375,8.206a3.578,3.578,0,0,1-3.614-.069,61.839,61.839,0,0,0-13.28-5.511,3.921,3.921,0,0,1-2.865-2.813c-1.844-5.686-3.773-11.345-5.634-17.029a1.213,1.213,0,0,0-1.375-.993q-8.812.054-17.627,0c-.754-.005-1.015.3-1.227.941-1.88,5.705-3.809,11.4-5.67,17.111a3.856,3.856,0,0,1-2.8,2.772,61.891,61.891,0,0,0-13.208,5.461,3.855,3.855,0,0,1-3.933.041c-5.415-2.75-10.865-5.434-16.285-8.173a.923.923,0,0,0-1.281.222q-6.3,6.352-12.657,12.651a1.019,1.019,0,0,0-.208,1.43q4.091,8.093,8.12,16.216a20.046,20.046,0,0,1,.729,1.938,18.867,18.867,0,0,1-.8,1.979,60.818,60.818,0,0,0-5.271,12.712,4.59,4.59,0,0,1-3.367,3.447c-5.612,1.792-11.184,3.713-16.779,5.557a1,1,0,0,0-.834,1.117q.037,8.859,0,17.717a1.157,1.157,0,0,0,.955,1.306c5.6,1.833,11.178,3.735,16.784,5.544a4.4,4.4,0,0,1,3.2,3.277,57.566,57.566,0,0,0,5.28,12.709,4.048,4.048,0,0,1,.076,4.177c-2.733,5.357-5.387,10.758-8.1,16.128a.969.969,0,0,0,.188,1.356q6.328,6.265,12.592,12.591a1.077,1.077,0,0,0,1.5.266c5.313-2.692,10.664-5.3,15.964-8.024a4.181,4.181,0,0,1,4.333.036,59.5,59.5,0,0,0,12.967,5.349,3.873,3.873,0,0,1,2.829,2.747c1.858,5.714,3.793,11.4,5.665,17.111a1.208,1.208,0,0,0,1.374.991q4.444-.027,8.888-.028Q-10839.9-271-10835.616-270.969Zm-60.463-84.234a51.716,51.716,0,0,1,15.47-36.986,3.011,3.011,0,0,1-2.5-3.12,3.091,3.091,0,0,1,3.176-3.167,3.159,3.159,0,0,1,3.131,2.888,51.7,51.7,0,0,1,32.336-11.494,51.4,51.4,0,0,1,32.626,11.494,3.132,3.132,0,0,1,3.139-2.887,3.1,3.1,0,0,1,3.164,3.118,3.109,3.109,0,0,1-2.5,3.158,51.342,51.342,0,0,1,15.465,36.89,51.832,51.832,0,0,1-51.382,51.755h-.351A51.875,51.875,0,0,1-10896.079-355.2Zm6.348-.1a45.44,45.44,0,0,0,45.21,45.388,45.539,45.539,0,0,0,45.636-45.076,45.574,45.574,0,0,0-45.322-45.751A45.44,45.44,0,0,0-10889.731-355.3Zm35.5,38.25a5.417,5.417,0,0,1-2.859-6.161q2.9-11.065,5.82-22.127c.1-.392.187-.79.313-1.331h-1.147q-2.194,0-4.388,0c-3.294,0-6.584-.005-9.872.027a5.192,5.192,0,0,1-5.17-3.022,5.609,5.609,0,0,1,.614-6.166q13.321-17.631,26.64-35.256a6.635,6.635,0,0,1,3.557-2.879c3.686-.963,7.409,2.522,6.5,6.224-1.869,7.607-3.834,15.19-5.755,22.783-.071.277-.109.563-.189.985h1.235c5.609-.022,11.222.019,16.828-.082a5.59,5.59,0,0,1,5.179,7.824,6.288,6.288,0,0,1-1.037,1.63q-14.449,17.421-28.915,34.823c-.32.384-.631.779-.94,1.175a5.218,5.218,0,0,1-4.122,2.1A5.229,5.229,0,0,1-10854.233-317.052Zm10.4-31.48c-1.816,6.584-3.519,13.2-5.261,19.8-.17.639-.312,1.287-.467,1.929l.187.093c8.511-10.25,17.026-20.5,25.726-30.975h-1.2q-9.653.016-19.309.025a3.118,3.118,0,0,1-3.173-4.1q2.178-8.653,4.386-17.295c.362-1.43.716-2.862,1.075-4.292l-.214-.093-23.03,30.459h1.325c1.605,0,3.211,0,4.816.008,3.887.014,7.772.027,11.655-.06h.1A3.368,3.368,0,0,1-10843.838-348.532Z" transform="translate(10935 446)" stroke="rgba(0,0,0,0)" stroke-width="1" fill="url(#linear-gradient)"/>
  </g>
</svg>
