<svg xmlns="http://www.w3.org/2000/svg" xmlns:xlink="http://www.w3.org/1999/xlink" width="182.417" height="182.35" viewBox="0 0 182.417 182.35">
  <defs>
    <linearGradient id="linear-gradient" x1="0.171" y1="0.919" x2="0.836" y2="0.175" gradientUnits="objectBoundingBox">
      <stop offset="0" stop-color="#ce8f5a"/>
      <stop offset="1" stop-color="#c97f5f"/>
    </linearGradient>
  </defs>
  <g id="Component_1_1" data-name="Component 1 – 1" transform="translate(0.499 0.491)">
    <path id="Union_5" data-name="Union 5" d="M-10809.884-264.644a2.888,2.888,0,0,1-3.219-3.227q0-29.626,0-59.253v-58.811c0-3.966,2.3-6.268,6.257-6.268q5.228,0,10.453,0a5.655,5.655,0,0,1,5.963,5.941q.009,59.208,0,118.418c0,2.1-1.119,3.2-3.249,3.2l-8.1,0Zm2.5-5.705h11.222v-116.14h-11.222Zm-30.821,5.705c-2.144,0-3.244-1.117-3.244-3.29q0-22.538,0-45.078v-44.551c0-4.018,2.286-6.293,6.323-6.293,3.455,0,6.907-.005,10.362,0a5.66,5.66,0,0,1,5.991,6q0,44.989,0,89.984a2.88,2.88,0,0,1-3.222,3.225l-8.1,0Zm2.467-5.722h11.263v-87.753h-11.263Zm-59.124,5.722c-2.176,0-3.279-1.1-3.282-3.255v-16.735q0-8.237,0-16.471a5.679,5.679,0,0,1,6.024-6.057q5.36-.008,10.714,0a5.656,5.656,0,0,1,5.936,5.966q.013,16.647,0,33.3c0,2.168-1.1,3.252-3.279,3.255l-8.058,0Zm2.432-5.722h11.26v-31.06h-11.26Zm25.934,5.722c-2.214,0-3.3-1.092-3.3-3.323v-61.462a5.691,5.691,0,0,1,6.092-6.081c3.543,0,7.086-.005,10.629,0a5.655,5.655,0,0,1,5.955,5.947q.013,15.367,0,30.731V-268.1c0,2.429-1.023,3.455-3.438,3.455h-15.939Zm2.418-5.708h11.225V-329.8h-11.225Zm79.322-16.576c0-2.467-.011-4.937.02-7.4a1.29,1.29,0,0,1,.434-.716c1.193-1.227,2.467-2.382,3.592-3.666a8,8,0,0,0,1.472-2.467,2.988,2.988,0,0,0-.852-3.384q-2.115-2.013-4.127-4.136a1.969,1.969,0,0,1-.516-1.2c-.047-2.352-.022-4.7-.022-7.229.324.294.538.469.732.664,2.52,2.53,4.965,5.14,7.572,7.577a9.213,9.213,0,0,1,.908,12.8c-2.761,3.29-5.934,6.23-8.928,9.322Zm-119.834-.45c-2.632-2.626-5.359-5.162-7.849-7.917a9.434,9.434,0,0,1-2.02-10.406,8.375,8.375,0,0,1,1.649-2.478c1.481-1.6,3.063-3.112,4.627-4.632a1.048,1.048,0,0,1,.817-.28,8.4,8.4,0,0,0,5.524-.535c1-.423,2.009-.812,3.016-1.218l.179.173c-.447.535-.859,1.109-1.351,1.6q-4.141,4.178-8.32,8.321a3.393,3.393,0,0,0-.687,4.542,11.548,11.548,0,0,0,1.71,2.119c.969,1.032,2.009,2,2.986,3.019a1.5,1.5,0,0,1,.444.892c.038,2.388.021,4.778.021,7.358A6.336,6.336,0,0,1-10904.591-287.378Zm119.837-31.06c-.006-3.513-.011-7.026.008-10.541a3.158,3.158,0,0,1,.239-1.191,65.517,65.517,0,0,0,3.5-10.933,5.733,5.733,0,0,1,6.079-4.825c3.807-.008,7.618,0,11.425,0,2.591,0,4.139-1.331,4.212-3.927.1-3.658.077-7.322-.011-10.98a5.738,5.738,0,0,0-.837-2.473,2.857,2.857,0,0,0-2.723-1.487c-3.957.033-7.914.014-11.869.011-3.526,0-5.42-1.652-6.355-5.063-.966-3.515-2.212-6.957-3.312-10.437a7.037,7.037,0,0,1-.349-1.789c-.074-1.976.05-3.966-.156-5.925a10.8,10.8,0,0,0-4.539-7.7l-.478-.368c.447-.552.84-1.128,1.322-1.616,2.742-2.769,5.448-5.576,8.28-8.252a3.67,3.67,0,0,0,.623-4.808,5.981,5.981,0,0,0-.961-1.262c-2.327-2.349-4.654-4.7-7.022-7.006a6.086,6.086,0,0,0-1.825-1.208,3.387,3.387,0,0,0-4.105.821c-2.736,2.816-5.538,5.568-8.318,8.343a5.662,5.662,0,0,1-7.694.87,64.445,64.445,0,0,0-20.407-8.45,5.718,5.718,0,0,1-4.819-6.079q-.012-5.714,0-11.427c0-2.58-1.342-4.133-3.937-4.207-3.658-.1-7.322-.066-10.98.005a5.389,5.389,0,0,0-2.253.694,2.976,2.976,0,0,0-1.693,2.873c.036,4.015.017,8.03.014,12.048,0,3.354-1.657,5.4-4.942,6.153a64.57,64.57,0,0,0-20.089,8.31c-3.032,1.907-5.5,1.633-8.038-.9q-4.009-4.005-8.013-8.022c-1.705-1.7-3.787-1.918-5.577-.25-2.782,2.593-5.482,5.291-8.068,8.082-1.663,1.8-1.427,3.815.311,5.549q4.107,4.1,8.214,8.2a5.615,5.615,0,0,1,.872,7.484,64.805,64.805,0,0,0-8.562,20.646,5.673,5.673,0,0,1-5.906,4.7c-3.869.019-7.736.005-11.605.005-2.569,0-4.125,1.364-4.188,3.949-.09,3.628-.068,7.264.009,10.892a5.7,5.7,0,0,0,.76,2.412,2.944,2.944,0,0,0,2.832,1.614c3.955-.036,7.912-.016,11.869-.011,3.527.005,5.432,1.652,6.326,5.088.787,3.016,1.812,5.972,2.733,8.955.088.277.2.546.338.917-1.729.757-3.417,1.5-5.321,2.335-.985-3.164-1.951-6.249-2.906-9.339-.223-.73-.187-1.745-.67-2.127s-1.46-.156-2.223-.156c-3.277-.008-6.56-.11-9.833.019-5.464.217-8.884-4.185-9.457-8.282a10.5,10.5,0,0,1-.146-1.405c-.011-3.633-.047-7.264.008-10.895a10.092,10.092,0,0,1,2.265-6.3,8.433,8.433,0,0,1,6.9-3.356c1.71.008,3.422.005,5.132.005,2.188,0,4.375,0,6.562.016.7.005,1.013-.151,1.184-.895a69.032,69.032,0,0,1,8.96-21.535,6.139,6.139,0,0,1,.458-.667,4.649,4.649,0,0,1-.817-.535c-2.6-2.577-5.115-5.244-7.8-7.736a9.434,9.434,0,0,1-.346-13.508c2.64-2.862,5.379-5.653,8.271-8.255a9.318,9.318,0,0,1,9.792-2.094,9.794,9.794,0,0,1,3.29,2.141c2.764,2.621,5.409,5.365,8.1,8.06.228.225.464.442.719.686a70.7,70.7,0,0,1,22.9-9.5v-7.6c0-1.564.047-3.131-.011-4.7a9.15,9.15,0,0,1,7.357-9.141,6,6,0,0,1,1.3-.233c1.295,0,2.6-.011,3.895-.027,3.249-.036,6.5-.074,9.723.184a8.945,8.945,0,0,1,7.8,7.2,11.056,11.056,0,0,1,.141,2.028c.011,3.837,0,7.676,0,11.515,0,.445-.058.832.585.974a69.89,69.89,0,0,1,22.1,9.2c.05.03.107.052.236.113.206-.195.439-.4.661-.626,2.613-2.607,5.3-5.14,7.813-7.846a9.426,9.426,0,0,1,13.381-.4c2.929,2.695,5.758,5.519,8.444,8.458a9.421,9.421,0,0,1,.9,11.836,18.441,18.441,0,0,1-1.743,1.883c-2.664,2.676-5.337,5.343-7.862,7.868,1.916,3.889,3.946,7.53,5.533,11.359,1.569,3.793,2.691,7.775,4.048,11.781h1.3c3.513,0,7.031.115,10.541-.025a9.277,9.277,0,0,1,9.469,8.249,33.618,33.618,0,0,1,.178,4.591c-.017,3.068.1,6.153-.2,9.2a9.175,9.175,0,0,1-9.432,8.288c-2.265-.058-4.528-.047-6.793-.036-1.484.005-2.972.014-4.456,0-.676-.005-.955.162-1.12.87a69.663,69.663,0,0,1-8.291,20.393c-.228.379-.466.752-.795,1.284C-10784.716-318.018-10784.754-318.227-10784.754-318.438Zm-123.092-1.792a2.867,2.867,0,0,1,1.809-3.845,141.783,141.783,0,0,0,34.106-20.3c14.507-11.713,25.923-25.819,33.19-43.108.535-1.273,1.031-2.56,1.548-3.842l-.132-.124c-.5.458-.993.919-1.5,1.372a2.843,2.843,0,0,1-4.048-.132,2.825,2.825,0,0,1,.25-4.042q4.43-4.084,8.861-8.159c2.138-1.962,4.522-1.257,5.182,1.548.881,3.76,1.734,7.525,2.594,11.29a2.834,2.834,0,0,1-2.034,3.57,2.862,2.862,0,0,1-3.526-2.256c-.088-.329-.184-.656-.343-1.216-.417,1.057-.741,1.894-1.076,2.728a110.906,110.906,0,0,1-25.682,38.111,143.9,143.9,0,0,1-45.265,29.8,3.54,3.54,0,0,1-1.381.295A2.708,2.708,0,0,1-10907.846-320.23Zm28.7-53.992c6.583-11.949,16.869-18.631,30.179-20.582.1,1.946.192,3.765.277,5.491a72.441,72.441,0,0,0-7.9,2.305c-12.095,5-19.225,14.034-21.354,26.955a31.934,31.934,0,0,0,.448,12.05,1.163,1.163,0,0,1-.259.974c-1.4,1.12-2.862,2.171-4.479,3.378C-10885.276-354.373-10884.461-364.584-10879.15-374.222Zm55.871-7.964a8.9,8.9,0,0,0,2.89-4.759,2.542,2.542,0,0,1,1.658,2.635c-.156,2.072-.041,4.166-.041,6.361C-10820.334-379.417-10821.783-380.781-10823.279-382.186Z" transform="translate(10935 446.001)" stroke="rgba(0,0,0,0)" stroke-width="1" fill="url(#linear-gradient)"/>
  </g>
</svg>
