<svg xmlns="http://www.w3.org/2000/svg" xmlns:xlink="http://www.w3.org/1999/xlink" width="264.001" height="173.863" viewBox="0 0 264.001 173.863">
  <defs>
    <linearGradient id="linear-gradient" x1="0.5" x2="0.5" y2="1" gradientUnits="objectBoundingBox">
      <stop offset="0" stop-color="#aacf7b"/>
      <stop offset="1" stop-color="#69b676"/>
    </linearGradient>
  </defs>
  <path id="Union_12" data-name="Union 12" d="M185.568,172.222a3.22,3.22,0,0,1-.555-4.773,55.758,55.758,0,0,1,9.859-10.233,21.356,21.356,0,0,1,1.874-1.5c.524-.345.55-.638.3-1.182a26.34,26.34,0,0,1-2.541-9.726c-.524-9.141,3.076-16.2,10.715-21.235a34.344,34.344,0,0,1,16.621-5.407c2.172-.167,4.347-.211,6.524-.188a149.931,149.931,0,0,1,19.8,1.974q6.779,1.08,13.461,2.661c1.326.313,1.68.965,1.124,2.176a178.976,178.976,0,0,1-17.8,31.335A35.266,35.266,0,0,1,232.474,167.3c-10.751,5.422-22.418,3.81-30.887-5.82-.549-.624-.861-.649-1.481-.133a58.651,58.651,0,0,0-9.864,9.993,3.5,3.5,0,0,1-2.791,1.519A3.152,3.152,0,0,1,185.568,172.222ZM219.623,148.9a149.24,149.24,0,0,0-12.973,7.7c-.348.233-.418.372-.114.7,4.875,5.195,10.719,7.614,17.857,6.07a22.94,22.94,0,0,0,12.762-8.053c6.939-8.2,11.952-17.617,16.757-27.147.2-.4.107-.493-.332-.583-3.054-.624-6.129-1.118-9.211-1.577a113.379,113.379,0,0,0-20.006-1.461,31.159,31.159,0,0,0-13.012,3.05c-9.332,4.585-12.726,13.4-8.9,23.056.23.579.407.648.942.289q2.492-1.669,5.061-3.222a1.612,1.612,0,0,0,.869-1.487c.18-3.31.4-6.619.686-9.921a3.232,3.232,0,0,1,4.936-2.59c1.443.862,1.683,2.268,1.541,3.813-.175,1.9-.32,3.806-.489,5.838,1.025-.513,1.939-.964,2.848-1.426a182.183,182.183,0,0,1,17.164-7.78,3.328,3.328,0,0,1,3.954.949,3.285,3.285,0,0,1-1.553,5.125c-1.984.81-3.966,1.626-5.934,2.475-1.588.686-3.153,1.424-4.708,2.129.065.317.272.328.409.394,1.182.572,2.384,1.1,3.557,1.694a3.264,3.264,0,1,1-2.937,5.822c-2.729-1.239-5.436-2.529-8.148-3.8a1.381,1.381,0,0,0-.585-.169A.937.937,0,0,0,219.623,148.9ZM97.145,167.7a17.568,17.568,0,0,1-17.167-13.783c-.163-.717-.447-.9-1.143-.9q-11.322.034-22.645,0a2.623,2.623,0,0,0-1.573.564c-4.16,2.886-8.333,5.754-12.492,8.642a3.826,3.826,0,0,1-3.233.8,3.521,3.521,0,0,1-1.253-6.29c1.65-1.188,3.337-2.322,4.963-3.707H41.48q-8.9,0-17.793,0C11.522,153.022,1.65,144.614.539,132.524a132.984,132.984,0,0,1,0-23.89c1.072-12.012,10.975-20.5,23.034-20.52,1.9,0,3.811-.018,5.715.009.581.009.788-.165.866-.771A14.739,14.739,0,0,1,45.075,74.3q6.146-.006,12.293,0A14.706,14.706,0,0,1,72.245,87.028c.126.8.348,1.124,1.248,1.11,3.845-.06,7.692-.039,11.538-.012a2.921,2.921,0,0,0,1.786-.577c3.977-2.773,7.979-5.51,11.959-8.277a3.7,3.7,0,0,1,3.036-.752,3.525,3.525,0,0,1,1.407,6.258c-1.182.877-2.419,1.678-3.621,2.529-.281.2-.644.316-.851.805,5.32,0,10.531-.01,15.743.012.656,0,.773-.281.769-.84-.011-1.543-.042-3.09.041-4.63a8.723,8.723,0,0,1,8.463-8.312q12.669-.137,25.34,0a8.748,8.748,0,0,1,8.528,8.593c.044,1.471.021,2.944.019,4.417,0,.429.019.754.607.771,3.776.111,7.488-.1,10.835-2.128,4.9-2.961,7.784-7.265,7.941-13.01.187-6.853.208-13.72,0-20.572a15.744,15.744,0,0,0-15.72-15.161,6.642,6.642,0,0,0-4.266,1.3c-3.843,2.773-7.772,5.43-11.685,8.105-2.41,1.647-5.276.579-5.758-2.143a3.386,3.386,0,0,1,1.553-3.533c1.666-1.174,3.352-2.321,5.04-3.488a.512.512,0,0,0-.571-.219,1.262,1.262,0,0,1-.15.012q-2.561,0-5.122,0c-3.325,0-6.65,0-9.974-.021-.783-.006-1.05.164-1.035,1,.052,3.087.028,6.175.017,9.263a3.484,3.484,0,0,1-3.809,3.823q-8.573.026-17.146,0a3.521,3.521,0,1,1-.05-7.025q6.361-.048,12.724.008c.894.009,1.239-.156,1.231-1.161-.05-6.32-.041-12.639-.006-18.959,0-.858-.252-1.082-1.091-1.079q-13.1.041-26.2,0c-.8,0-1.03.218-1.026,1.029q.05,9.587,0,19.174c0,.7.187.962.908,1.114a3.5,3.5,0,0,1-.709,6.885c-1.148.052-2.3.031-3.45.016a3.5,3.5,0,0,1-3.8-3.748q-.055-4.631.008-9.263c.013-.837-.211-1.085-1.069-1.078-5.464.04-10.927.026-16.391.01a1.135,1.135,0,0,0-1.233.715,5.718,5.718,0,0,1-5.74,3.411,44.21,44.21,0,0,1-4.494-.5.851.851,0,0,0-1.059.6c-.879,1.924-1.773,3.842-2.707,5.74a.852.852,0,0,0,.241,1.2c.967.858,1.906,1.749,2.833,2.651a6.039,6.039,0,0,1-1.19,9.86Q50.671,64.064,45.1,67a6.04,6.04,0,0,1-8.957-4.285c-.272-1.262-.541-2.527-.74-3.8a.855.855,0,0,0-.884-.839c-2.14-.245-4.279-.5-6.415-.792a.81.81,0,0,0-.991.559c-.539,1.212-1.1,2.415-1.7,3.6a6.063,6.063,0,0,1-9.778,1.806q-4.571-4.183-9.05-8.467a6.041,6.041,0,0,1,1.3-9.972c1.093-.619,2.182-1.248,3.308-1.8a.9.9,0,0,0,.549-1.19c-.428-2.035-.842-4.075-1.18-6.126a.925.925,0,0,0-.959-.9q-1.981-.223-3.956-.5a6,6,0,0,1-4.8-8.374Q3.5,19.859,6.481,13.948a5.978,5.978,0,0,1,9.13-1.867c1.145.922,2.194,1.965,3.251,2.99a.921.921,0,0,0,1.3.21q2.754-1.582,5.565-3.063a.874.874,0,0,0,.533-1.109c-.267-1.263-.495-2.534-.732-3.8A5.973,5.973,0,0,1,31.943.024c3.9.323,7.773.922,11.658,1.4.5.061,1,.1,1.494.2a6.037,6.037,0,0,1,4.484,8.564c-.529,1.215-1.11,2.41-1.7,3.6a.847.847,0,0,0,.176,1.2q2.4,2.163,4.724,4.414a.845.845,0,0,0,1.2.125c1.148-.668,2.31-1.311,3.49-1.92a6.041,6.041,0,0,1,8.924,4.2c.536,2.488,1.006,4.992,1.451,7.5.115.647.31.9,1.016.9q8.572-.046,17.146,0c.778,0,.954-.252.945-.98-.036-2.98-.018-5.961-.014-8.94,0-2.846,1.317-4.179,4.13-4.18q17.038,0,34.077,0c2.98,0,4.225,1.272,4.224,4.281,0,2.981,0,5.961-.006,8.942,0,.508-.013.878.706.874,5.139-.028,10.28-.016,15.42-.022a2.234,2.234,0,0,0,.429-.128c-1.684-1.169-3.281-2.241-4.836-3.369a3.524,3.524,0,0,1,1.233-6.336,3.728,3.728,0,0,1,3.134.77c3.773,2.626,7.594,5.184,11.327,7.864a6.17,6.17,0,0,0,3.963,1.235,22.927,22.927,0,0,1,23.4,22.35c.117,6.533.065,13.07.028,19.6a22.911,22.911,0,0,1-22.929,22.981c-.863.011-1.729.055-2.587-.012-.842-.066-1.037.278-1.013,1.056.048,1.578.045,3.161-.009,4.739a8.758,8.758,0,0,1-8.578,8.545q-12.615.132-25.233,0a8.728,8.728,0,0,1-8.521-8.369c-.088-1.683-.056-3.374-.039-5.061.006-.615-.14-.9-.834-.9q-5.552.021-11.1.013H98.14c-.164,0-.361-.05-.52.247,1.776,1.232,3.56,2.474,5.349,3.708a3.456,3.456,0,0,1,1.608,2.553,3.514,3.514,0,0,1-5.365,3.418c-.737-.445-1.429-.964-2.138-1.454q-5.763-3.978-11.519-7.966a2.619,2.619,0,0,0-1.59-.52c-3.523.02-7.046.026-10.568,0-.7-.006-.961.14-1.047.912a14.732,14.732,0,0,1-14.994,13.467q-6.146.035-12.293,0A14.708,14.708,0,0,1,30.1,96.032c-.048-.43-.013-.895-.666-.873-1.022.034-2.046.016-3.07,0a26.415,26.415,0,0,0-7.021.506A15.527,15.527,0,0,0,7.492,109.993c-.214,6.959-.235,13.935-.018,20.894A15.5,15.5,0,0,0,22.7,145.919c4.486.133,8.978.1,13.469.075,1.944-.013,3.888-.025,5.832-.024a6.13,6.13,0,0,0,.727-.119c-1.767-1.225-3.354-2.306-4.92-3.416a3.525,3.525,0,1,1,3.943-5.84c2.893,1.94,5.739,3.949,8.61,5.922,1.656,1.138,3.186,2.695,5.022,3.27a12.085,12.085,0,0,0,4.22.25c.6-.033,1.19-.065,1.773-.064q3.04,0,6.082,0c3.8,0,7.592,0,11.388.022a1.276,1.276,0,0,0,1.5-1.073,17.615,17.615,0,0,1,33.713.1,1.155,1.155,0,0,0,1.353.966q26.258-.028,52.517-.019a1.349,1.349,0,0,0,1.042-.211c-1.645-1.142-3.26-2.237-4.846-3.372a3.477,3.477,0,0,1-1.4-4.066,3.531,3.531,0,0,1,5.56-1.631c3.793,2.6,7.566,5.222,11.348,7.836.975.673,1.971,1.32,2.919,2.03a3.472,3.472,0,0,1,.026,5.9q-7.213,5.1-14.538,10.04a3.449,3.449,0,0,1-4.925-.97,3.518,3.518,0,0,1,1.067-4.912c1.578-1.122,3.17-2.225,4.754-3.339.021-.015.018-.064.039-.143a1.5,1.5,0,0,0-.9-.1q-26.2-.007-52.409-.019c-.76,0-1.088.159-1.284.992A17.562,17.562,0,0,1,97.229,167.7ZM86.611,149.988a10.59,10.59,0,1,0,10.625-10.469h-.073A10.57,10.57,0,0,0,86.611,149.988ZM43.957,81.444a7.4,7.4,0,0,0-6.721,6.275,39.376,39.376,0,0,0-.157,6.552c-.006,4.893,3.277,8.167,8.162,8.208,2.011.016,4.022,0,6.034,0v-.045c2.3,0,4.6.119,6.892-.027a7.547,7.547,0,0,0,7.154-7.383c.076-2.114.076-4.235,0-6.349a7.433,7.433,0,0,0-6.828-7.229q-3.59-.232-7.193-.228Q47.624,81.22,43.957,81.444Zm92.45,21.038q5.714,0,11.428,0c2.2,0,2.766-.551,2.767-2.721q.005-7.861,0-15.723c0-2.12-.584-2.717-2.67-2.718q-11.481-.006-22.963,0c-2.041,0-2.668.618-2.669,2.622q-.007,7.97,0,15.939c0,1.974.612,2.592,2.572,2.6q3.731.009,7.464,0ZM27.543,50.072q4.706.571,9.4,1.209a5.932,5.932,0,0,1,5.06,4.645c.254,1.118.456,2.249.654,3.379.1.587.2.918.922.505,2.431-1.387,4.892-2.721,7.356-4.049.526-.283.609-.479.126-.9-.866-.755-1.705-1.543-2.521-2.352A5.947,5.947,0,0,1,47.2,45.674q1.973-4.36,4.088-8.656a6.035,6.035,0,0,1,6.442-3.306c1.03.145,2.068.247,3.1.389.465.064.756.078.627-.571-.557-2.814-1.076-5.634-1.6-8.454-.087-.462-.26-.608-.726-.337-.993.576-2,1.122-3.023,1.652a5.951,5.951,0,0,1-7.091-.873q-3.467-3.154-6.845-6.406A5.907,5.907,0,0,1,40.842,12.2c.434-.985.874-1.968,1.38-2.916.348-.653.264-.91-.507-1q-4.174-.475-8.339-1.037c-.6-.082-.676.1-.563.622.226,1.051.416,2.111.6,3.17a5.975,5.975,0,0,1-3.133,6.7q-3.9,2.185-7.833,4.3A6.054,6.054,0,0,1,15,21.119c-.927-.843-1.832-1.709-2.865-2.675-1.369,2.891-2.663,5.649-3.982,8.394-.269.561-.02.673.463.729,1.141.131,2.283.264,3.419.432a5.9,5.9,0,0,1,5.1,4.607q1.008,4.733,1.8,9.511A5.874,5.874,0,0,1,15.78,48.51c-.935.533-1.875,1.063-2.834,1.549-.561.284-.551.5-.105.912q3.133,2.883,6.217,5.817c.434.413.6.3.824-.186.518-1.142,1.037-2.288,1.635-3.389a6,6,0,0,1,5.29-3.186A6.085,6.085,0,0,1,27.543,50.072Zm6.435-5.063a11.258,11.258,0,1,1,.014,0Zm-.04-15.478a4.205,4.205,0,1,0,.015,0Z" transform="translate(0.503 0.503)" stroke="rgba(0,0,0,0)" stroke-width="1" fill="url(#linear-gradient)"/>
</svg>
