<svg xmlns="http://www.w3.org/2000/svg" xmlns:xlink="http://www.w3.org/1999/xlink" width="171.91" height="172.307" viewBox="0 0 171.91 172.307">
  <defs>
    <linearGradient id="linear-gradient" x1="0.5" x2="0.5" y2="1" gradientUnits="objectBoundingBox">
      <stop offset="0" stop-color="#aacf7b"/>
      <stop offset="1" stop-color="#69b676"/>
    </linearGradient>
  </defs>
  <path id="Union_10" data-name="Union 10" d="M43,168.607c-.172-.757-.484-.888-1.173-.886q-16.848.029-33.7.019c-.433,0-.9-.184-1.055.594a3.507,3.507,0,0,1-3.892,2.934,3.562,3.562,0,0,1-3.138-3.749Q.031,148.182.038,128.846.038,75.555,0,22.264c0-2.977,1.757-4.519,4.5-4.464,3.992.08,7.986.07,11.98.059,2.365-.006,4.731-.012,7.1,0,.841,0,1.135-.19,1.1-1.075-.067-1.933-.035-3.87-.014-5.806a3.572,3.572,0,1,1,7.118.066c.008,1.97.037,3.941-.016,5.909-.02.752.233.91.937.9q4.613-.055,9.227,0c.741.01.918-.226.913-.935-.031-4.216-.016-8.432-.015-12.649C42.829,1.358,44.171,0,47.047,0h55.78c2.934,0,4.242,1.3,4.243,4.224,0,10.091.014,20.183-.019,30.274,0,.926.206,1.2,1.174,1.2q18.714-.053,37.428-.023c2.9,0,4.262,1.346,4.263,4.237q.006,22.447-.02,44.893a1.893,1.893,0,0,0,1.018,1.925,17.807,17.807,0,0,1,2.1,1.509,3.565,3.565,0,1,1-4.285,5.689,40.185,40.185,0,0,0-14.614-7.093A39.152,39.152,0,0,0,85.9,118.352c-2.015,12.249,1.2,23.112,9.264,32.55.468.548.694.73,1.272.048,1.362-1.607,2.832-3.123,4.294-4.641a.78.78,0,0,0,.088-1.2,27.4,27.4,0,0,1,2-33.169c2.916-3.362,6.655-5.317,10.713-6.8a87.651,87.651,0,0,1,20.2-4.339c3.844-.445,7.7-.759,11.573-.85,2.868-.068,4.351,1.375,4.231,4.223-.44,10.474-1.414,20.878-4.312,31.012-.532,1.86-1.223,3.663-1.931,5.462-5.182,13.173-23.252,19.618-36.317,10.565-.56-.388-.834-.3-1.248.165-1.337,1.492-2.695,2.969-4.1,4.4-.472.482-.443.664.1,1.053a37.712,37.712,0,0,0,17.428,6.938c12.593,1.583,23.657-1.938,32.765-10.776,8.575-8.322,12.429-18.644,11.8-30.606a41.036,41.036,0,0,0-.978-6.653,3.56,3.56,0,1,1,6.93-1.606c3.73,17.977-1.039,33.3-14.639,45.672a42.809,42.809,0,0,1-25.556,11.2C111.876,172.536,97.566,166.18,87,152.017c-7.544-10.115-10.155-21.694-8.271-34.122,2.05-13.529,9.049-24.057,20.342-31.738a1.748,1.748,0,0,0,.9-1.654q-.035-38.05.006-76.1c0-1.068-.284-1.308-1.32-1.306q-23.742.052-47.485,0c-.95,0-1.2.246-1.2,1.2Q50.02,48.058,50,87.819q0,39.606.01,79.212c0,1.778-.508,3.215-2.22,3.969A3.474,3.474,0,0,1,43,168.607Zm-.976-8.025c.638,0,.835-.2.822-.828-.037-1.726-.059-3.455.008-5.179a2.4,2.4,0,0,0-.032-.569v-8.129a1.32,1.32,0,0,0,.025-.3c-.046-1.9-.037-3.8,0-5.7.011-.633-.272-.725-.81-.725q-17.044.016-34.087,0c-.654,0-.82.222-.808.837.028,1.454.049,2.91.013,4.363h0v.014c-.007.267-.011.535-.022.8a2.538,2.538,0,0,0,.022.5v8.357a1.944,1.944,0,0,0-.017.328c.008.285.012.57.017.856v.468h.009c.017,1.354,0,2.709-.022,4.063-.011.611.155.851.807.85q8.421-.012,16.842-.012Q33.4,160.57,42.021,160.582Zm86.067-40.8a3.393,3.393,0,0,1,2.5,2.652,3.739,3.739,0,0,1-1.194,3.56q-8.773,9.4-17.537,18.8c-.479.511-.595.743.109,1.174,8.266,5.057,20.243,1.5,24.387-7.268a43.272,43.272,0,0,0,2.84-8.637,136.815,136.815,0,0,0,3.056-22.138c.057-.842-.408-.683-.891-.646-3.2.244-6.4.525-9.585.975a76.664,76.664,0,0,0-16.315,3.729,16.26,16.26,0,0,0-6.967,4.319,20.734,20.734,0,0,0-5.234,13.729,19.177,19.177,0,0,0,2.438,9.525c.415.758.661.73,1.216.122,2.656-2.909,5.357-5.778,8.042-8.661q4.733-5.083,9.47-10.164a3.5,3.5,0,0,1,2.608-1.226A3.9,3.9,0,0,1,128.088,119.78ZM7.147,116.17c0,.255-.007.51-.011.765a2.109,2.109,0,0,0,.011.267v8.258a1.915,1.915,0,0,0-.019.356c.009.258.013.517.019.775v.632h.014c.017,1.293,0,2.586-.028,3.879-.015.68.127.97.9.969q16.95-.035,33.9,0c.754,0,.928-.266.912-.958-.029-1.3-.044-2.592-.026-3.888h0V127.1q.01-.638.031-1.274a1.82,1.82,0,0,0-.031-.429v-8.109a1.668,1.668,0,0,0,.024-.33c-.034-1.761-.061-3.524.008-5.284.036-.9-.289-1.079-1.121-1.074-5.595.034-11.19.018-16.784.018s-11.19.016-16.784-.018c-.826-.005-1.06.242-1.034,1.052.047,1.416.043,2.834.024,4.251h0Zm0-28.808c-.007.195-.013.39-.023.585a2.615,2.615,0,0,0,.023.6v8.428a2.355,2.355,0,0,0-.012.286c0,.247.008.5.012.743v.663h.01c.015,1.292.016,2.585-.031,3.876-.029.811.255.963,1,.959,4.212-.022,8.424-.021,12.636-.019h4.248c5.627,0,11.255-.011,16.883.015.69,0,.976-.131.953-.9-.055-1.794-.032-3.591-.007-5.386a2.15,2.15,0,0,0-.021-.377V88.592a2.465,2.465,0,0,0,.034-.643c-.081-1.551-.069-3.111,0-4.663.038-.9-.169-1.241-1.168-1.221-3.42.068-6.842.026-10.263.026-7.706,0-15.412.019-23.118-.024-.985-.006-1.218.3-1.175,1.217.063,1.35.074,2.708.022,4.06h0Zm134.6-5.527c.8.312,1.03.274,1.025-.664-.034-6.217-.018-12.434-.018-18.65s-.013-12.434.017-18.65c0-.791-.179-1.056-1.018-1.054q-16.837.041-33.674,0c-.835,0-1.023.261-1.022,1.056q.035,18.494,0,36.99c0,.942.223.968,1.026.673a46.021,46.021,0,0,1,33.666.3ZM41.753,74.946c.854,0,1.133-.21,1.1-1.085-.057-1.36-.075-2.726-.029-4.088h.018v-.44c.006-.147.009-.295.018-.442a2.18,2.18,0,0,0-.018-.452V59.988a2.579,2.579,0,0,0,.006-.264c0-.115,0-.231-.006-.346v-.134h0c-.032-1.567-.037-3.135.012-4.7.025-.8-.192-1.052-1.027-1.046-5.629.038-11.259.019-16.888.019-5.561,0-11.121.025-16.681-.025-.946-.009-1.163.272-1.126,1.162.064,1.527.053,3.059.018,4.589H7.134v.375c0,.037,0,.074,0,.111,0,.06,0,.112,0,.166v8.546a2.3,2.3,0,0,0-.008.3c0,.1,0,.205.008.308v.72h.021c.031,1.383.025,2.769-.03,4.15-.034.86.289,1.041,1.068,1.018,1.655-.049,3.314-.014,4.971-.014l12.483,0Q33.7,74.926,41.753,74.946Zm.237-28.519c.724,0,.862-.274.851-.911-.025-1.333-.045-2.668-.025-4h.023v-.887c0-.133,0-.266.01-.4a2.308,2.308,0,0,0-.01-.327V31.429c0-.037,0-.07,0-.11,0-.059,0-.118,0-.176v-.555h-.01c-.026-1.518-.038-3.037.022-4.552.035-.892-.276-1.082-1.115-1.077-5.56.035-11.121.018-16.681.018-5.63,0-11.259.016-16.889-.018C7.348,24.954,7.1,25.183,7.128,26c.06,1.759.036,3.522.007,5.283a1.963,1.963,0,0,0,.02.344v8.126a1.716,1.716,0,0,0-.027.369q.018.643.027,1.287v.1h0c.016,1.334,0,2.668-.024,4-.013.647.138.91.852.909q8.239-.014,16.476-.015Q33.225,46.41,41.991,46.427ZM62.472,161.694a2.394,2.394,0,0,1-2.394-2.394v-5.685a2.4,2.4,0,0,1,2.394-2.394h5.685a2.4,2.4,0,0,1,2.394,2.394V159.3a2.394,2.394,0,0,1-2.394,2.394Zm0-19.692a2.4,2.4,0,0,1-2.394-2.395v-5.684a2.394,2.394,0,0,1,2.394-2.394h5.685a2.394,2.394,0,0,1,2.394,2.394v5.684A2.4,2.4,0,0,1,68.156,142Zm0-19.693a2.4,2.4,0,0,1-2.394-2.394V114.23a2.394,2.394,0,0,1,2.394-2.394h5.685a2.394,2.394,0,0,1,2.394,2.394v5.685a2.4,2.4,0,0,1-2.394,2.394Zm0-19.693a2.394,2.394,0,0,1-2.394-2.394V94.537a2.394,2.394,0,0,1,2.394-2.394h5.685a2.394,2.394,0,0,1,2.394,2.394v5.685a2.394,2.394,0,0,1-2.394,2.394Zm19.13-18.2a2.4,2.4,0,0,1-2.394-2.394V76.336A2.4,2.4,0,0,1,81.6,73.942h5.685a2.394,2.394,0,0,1,2.394,2.394v5.685a2.4,2.4,0,0,1-2.394,2.394Zm-19.13,0a2.4,2.4,0,0,1-2.394-2.394V76.336a2.394,2.394,0,0,1,2.394-2.394h5.685a2.394,2.394,0,0,1,2.394,2.394v5.685a2.4,2.4,0,0,1-2.394,2.394ZM81.6,65.656a2.4,2.4,0,0,1-2.394-2.394V57.577A2.4,2.4,0,0,1,81.6,55.183h5.685a2.394,2.394,0,0,1,2.394,2.394v5.685a2.394,2.394,0,0,1-2.394,2.394Zm-19.13,0a2.394,2.394,0,0,1-2.394-2.394V57.577a2.394,2.394,0,0,1,2.394-2.394h5.685a2.394,2.394,0,0,1,2.394,2.394v5.685a2.394,2.394,0,0,1-2.394,2.394ZM81.6,47.02a2.4,2.4,0,0,1-2.394-2.394V38.941A2.4,2.4,0,0,1,81.6,36.546h5.685a2.394,2.394,0,0,1,2.394,2.394v5.685a2.394,2.394,0,0,1-2.394,2.394Zm-19.13,0a2.394,2.394,0,0,1-2.394-2.394V38.941a2.394,2.394,0,0,1,2.394-2.394h5.685a2.394,2.394,0,0,1,2.394,2.394v5.685a2.394,2.394,0,0,1-2.394,2.394ZM81.6,27.767a2.4,2.4,0,0,1-2.394-2.395V19.687A2.4,2.4,0,0,1,81.6,17.294h5.685a2.394,2.394,0,0,1,2.394,2.394v5.685a2.394,2.394,0,0,1-2.394,2.395Zm-19.13,0a2.4,2.4,0,0,1-2.394-2.395V19.687a2.394,2.394,0,0,1,2.394-2.394h5.685a2.394,2.394,0,0,1,2.394,2.394v5.685a2.394,2.394,0,0,1-2.394,2.395Z" transform="translate(0.5 0.5)" stroke="rgba(0,0,0,0)" stroke-width="1" fill="url(#linear-gradient)"/>
</svg>
