<svg xmlns="http://www.w3.org/2000/svg" xmlns:xlink="http://www.w3.org/1999/xlink" width="207.133" height="207.136" viewBox="0 0 207.133 207.136">
  <defs>
    <linearGradient id="linear-gradient" x1="0.5" x2="0.5" y2="1" gradientUnits="objectBoundingBox">
      <stop offset="0" stop-color="#aacf7b"/>
      <stop offset="1" stop-color="#69b676"/>
    </linearGradient>
  </defs>
  <path id="Union_11" data-name="Union 11" d="M30.851,206.109A3.371,3.371,0,0,1,27.5,202.74c-.037-1.466-.051-2.935.009-4.4.028-.7-.313-.912-.849-1.246-1.639-1.018-2.832-.667-3.924.842a14.079,14.079,0,0,1-1.962,1.978,3.336,3.336,0,0,1-4.82,0q-4.894-4.82-9.715-9.715a3.327,3.327,0,0,1,.034-4.895q1.521-1.59,3.112-3.111a.911.911,0,0,0,.262-1.2c-1-2.346-.982-2.353-3.547-2.353-.895,0-1.789.022-2.683-.006a3.4,3.4,0,0,1-3.4-3.432q-.043-6.87,0-13.739a3.373,3.373,0,0,1,3.5-3.429c1.466-.025,2.934-.028,4.4.005a.923.923,0,0,0,1.025-.682c.955-2.33.975-2.322-.78-4.08-.632-.634-1.278-1.253-1.893-1.9a3.332,3.332,0,0,1-.034-4.9q4.819-4.895,9.714-9.716a3.323,3.323,0,0,1,4.817-.006c1.1,1.026,2.155,2.1,3.192,3.183a.913.913,0,0,0,1.2.239c2.32-1,2.327-.982,2.326-3.567,0-.788-.007-1.575,0-2.362a3.442,3.442,0,0,1,3.675-3.7c1.145-.011,2.29,0,3.435,0h3.327c2.183,0,4.365-.012,6.547,0a3.437,3.437,0,0,1,3.624,3.644c.014,1.4.04,2.792-.013,4.186-.025.655.292.852.8,1.167,1.663,1.032,2.9.7,4.011-.846a14.38,14.38,0,0,1,1.883-1.907,3.322,3.322,0,0,1,4.817-.071q4.944,4.844,9.789,9.791a3.3,3.3,0,0,1-.026,4.814c-1,1.068-2.04,2.111-3.113,3.11-.481.448-.38.806-.253,1.383.429,1.945,1.582,2.517,3.444,2.231a15.452,15.452,0,0,1,2.68-.018,3.391,3.391,0,0,1,3.453,3.375q.054,6.923,0,13.847a3.372,3.372,0,0,1-3.447,3.379c-1.5.03-3.006.025-4.508,0a.859.859,0,0,0-.949.626c-.994,2.368-1.011,2.36.8,4.171.631.633,1.281,1.25,1.889,1.905a3.308,3.308,0,0,1,.035,4.816q-4.844,4.945-9.789,9.791a3.313,3.313,0,0,1-4.815-.062c-1.087-1.038-2.148-2.1-3.187-3.187a.851.851,0,0,0-1.114-.213c-2.371.984-2.377.968-2.379,3.524,0,.894.019,1.789-.007,2.683a3.384,3.384,0,0,1-3.4,3.426q-3.442.024-6.886.025Q34.331,206.136,30.851,206.109Zm-5.437-17.147a36.348,36.348,0,0,0,6.517,2.7,3.311,3.311,0,0,1,2.429,3.4c.018,1.108.031,2.219-.007,3.326-.021.607.084.9.8.878,1.787-.054,3.577-.039,5.365-.007.571.01.742-.177.725-.734-.036-1.144-.022-2.29-.007-3.435a3.39,3.39,0,0,1,2.6-3.5,29.808,29.808,0,0,0,6.126-2.527,3.342,3.342,0,0,1,4.313.614c.829.79,1.636,1.6,2.429,2.428.338.353.568.523,1,.067,1.283-1.346,2.6-2.657,3.942-3.948.386-.372.345-.584-.017-.927-.882-.837-1.748-1.693-2.581-2.58a3.245,3.245,0,0,1-.61-4.044,33.892,33.892,0,0,0,2.662-6.418,3.352,3.352,0,0,1,3.474-2.484c1.109-.014,2.219-.027,3.327.006.558.016.84-.08.825-.743-.041-1.824-.028-3.649,0-5.474.007-.512-.161-.686-.674-.672-1.144.03-2.29.019-3.435.006a3.416,3.416,0,0,1-3.572-2.654,30.009,30.009,0,0,0-2.488-6.027,3.354,3.354,0,0,1,.621-4.4c.795-.823,1.61-1.628,2.43-2.426.313-.3.5-.51.07-.925-1.371-1.309-2.7-2.66-4.024-4.019-.337-.346-.538-.31-.849.018-.737.779-1.508,1.527-2.271,2.282-1.581,1.564-2.9,1.78-4.828.726a26.838,26.838,0,0,0-5.221-2.2c-2.581-.767-3.243-1.693-3.255-4.415-.005-1.1.371-2.581-.188-3.207-.423-.474-1.219-.382-1.979-.29a5.43,5.43,0,0,1-1.106.063c-1.127,0-2.058.019-2.988-.008-.47-.014-.623.159-.614.621.024,1.144.017,2.289,0,3.435a3.437,3.437,0,0,1-2.7,3.645,30.462,30.462,0,0,0-6.024,2.494,3.337,3.337,0,0,1-4.314-.614c-.828-.79-1.635-1.6-2.428-2.428-.34-.355-.569-.517-1-.063-1.283,1.346-2.6,2.657-3.944,3.948-.389.375-.334.588.022.928.881.839,1.748,1.693,2.581,2.579a3.258,3.258,0,0,1,.6,4.047,34.085,34.085,0,0,0-2.664,6.418,3.317,3.317,0,0,1-3.369,2.475q-1.771.035-3.542,0c-.473-.009-.716.084-.707.638q.043,2.79,0,5.581c-.008.518.17.68.677.667,1.144-.029,2.289-.018,3.435-.005a3.4,3.4,0,0,1,3.571,2.653,30.078,30.078,0,0,0,2.488,6.028,3.373,3.373,0,0,1-.62,4.4c-.794.824-1.609,1.63-2.432,2.425-.321.31-.488.521-.065.926,1.369,1.312,2.7,2.66,4.024,4.02.341.35.538.3.847-.022.843-.877,1.7-1.743,2.581-2.58a3.537,3.537,0,0,1,2.433-1.1A3.359,3.359,0,0,1,25.415,188.962Zm153.157,17.161a27.457,27.457,0,1,1,.111,0Zm-3.18-20.607a3.438,3.438,0,0,0-3.606,3.655c-.013,1.322,0,2.644,0,3.965,0,1.393.025,2.786-.012,4.179a.846.846,0,0,0,.711.978,20.361,20.361,0,0,0,12.329,0,.852.852,0,0,0,.726-.967c-.028-2.749,0-5.5-.019-8.251a3.425,3.425,0,0,0-3.59-3.561q-1.634-.015-3.268-.015T175.391,185.516Zm12.568-6.034c-.233.517-.32.811.232,1.227a10.15,10.15,0,0,1,4.207,8.719c-.02,1.42,0,2.84,0,4.46a20.492,20.492,0,0,0,5.169-23.428c-3.52-8.133-12.166-13.3-20.7-12.362a20.625,20.625,0,0,0-18.518,17c-1.418,7.509,2.07,15.307,6.564,18.609,0-1.647-.025-3.254,0-4.859a9.911,9.911,0,0,1,3.892-7.9c.674-.537.825-.858.445-1.7a10.237,10.237,0,0,1,9.095-14.344l.254,0A10.245,10.245,0,0,1,187.959,179.481Zm-12.738-4.339a3.432,3.432,0,1,0,3.465-3.369h-.039A3.458,3.458,0,0,0,175.221,175.142Zm-64.428,16.616c.02-1.859,0-3.719-.029-5.578-.009-.5.155-.677.667-.69q2.572-.068,5.142-.224c.571-.034.841.1.879.73q.16,2.622.429,5.236c.067.655-.138.906-.8.912-.965.009-1.928.087-2.892.135,0,.032,0,.065,0,.1-.893,0-1.787-.017-2.68.007h-.088C111.017,192.383,110.788,192.289,110.793,191.758Zm-7.715.4q-2.975-.336-5.953-.625c-.462-.045-.5-.285-.445-.65.273-1.9.551-3.809.8-5.716.058-.447.274-.5.649-.459,1.806.2,3.612.4,5.422.568.472.042.614.216.572.663-.088.958-.149,1.919-.22,2.879l.029,0c-.066.889-.154,1.777-.188,2.667-.016.424-.094.681-.516.681A1.328,1.328,0,0,1,103.078,192.154Zm21.827-1.6c-.284-1.868-.57-3.736-.895-5.6-.081-.466.147-.563.49-.631,1.818-.356,3.639-.7,5.454-1.071.474-.1.533.168.611.509.419,1.8.849,3.608,1.276,5.411.088.375.121.705-.39.806-1.958.388-3.913.788-5.868,1.184a.986.986,0,0,1-.172.017C125.047,191.18,124.96,190.912,124.905,190.552Zm-35.938-.469c-1.892-.506-3.792-.981-5.691-1.457-.413-.1-.576-.244-.425-.729.561-1.8,1.082-3.617,1.59-5.434.144-.515.395-.538.857-.412,1.684.459,3.379.876,5.071,1.3.366.091.742.134.553.667-.4,1.882-.8,3.762-1.2,5.645-.07.337-.206.472-.451.472A1.216,1.216,0,0,1,88.967,190.083Zm49.726-2.672c-.563-1.806-1.126-3.611-1.707-5.411-.133-.413-.088-.634.376-.791,1.723-.584,3.434-1.2,5.141-1.832.39-.143.584-.06.734.326.7,1.794,1.421,3.582,2.137,5.371.121.3.137.533-.247.668-1.952.689-3.9,1.392-5.845,2.089a.873.873,0,0,1-.105.023.6.6,0,0,1-.08.006C138.827,187.86,138.765,187.642,138.693,187.411Zm-101.023-1.9a17.228,17.228,0,1,1,.08,0ZM27.5,168.331a10.3,10.3,0,1,0,10.308-10.3h-.018A10.339,10.339,0,0,0,27.5,168.331Zm54.474-9.364c-.779-.332-.942-.627-.544-1.393.74-1.426,1.427-2.884,2.043-4.367.307-.738.607-.864,1.341-.531a57.8,57.8,0,0,0,16.63,4.756c17.356,2.211,33.051-1.938,46.787-12.766A60.288,60.288,0,0,0,171.075,105.5c4.868-30.834-14.8-60.959-44.939-68.995A61.821,61.821,0,0,0,49.723,82.223,60.257,60.257,0,0,0,54.1,122.692c.424.9.423,1.3-.571,1.716a46.422,46.422,0,0,0-4.313,2.151c-.585.319-.816.235-1.106-.366a68.458,68.458,0,0,1-5.991-18.939,92.463,92.463,0,0,1-.992-10c.974-28.937,13.86-50.463,40.09-63.4a64.159,64.159,0,0,1,35.82-5.981,68.77,68.77,0,0,1-6.9,137.135A71.538,71.538,0,0,1,81.971,158.966Zm113.187-19.549c-1.654-.842-3.3-1.693-4.971-2.507-.48-.235-.488-.485-.278-.92.758-1.575,1.5-3.157,2.209-4.756.2-.452.393-.61.876-.4,1.7.733,3.421,1.435,5.127,2.16.21.09.514.124.5.471a1.3,1.3,0,0,1-.061.2q-1.3,2.817-2.61,5.633c-.1.211-.215.282-.342.282A1.114,1.114,0,0,1,195.158,139.417ZM88.364,134c-1.643-.072-3.292-.072-4.935,0-.842.037-.99-.257-.985-1.028.034-5.044,0-10.089.038-15.133.007-.846-.223-1.051-1.06-1.063-.885-.012-1.772.012-2.658.036a25.866,25.866,0,0,1-6.649-.391c-6.887-1.61-11.439-5.851-13.153-12.682-1.7-6.769.394-12.558,5.6-17.187a1.893,1.893,0,0,0,.747-1.52,20.6,20.6,0,0,1,40.77-3.291,7.76,7.76,0,0,1,.3,2.116,3.851,3.851,0,0,0,1.79,3.581,17.725,17.725,0,0,1,1.768,1.83,17.9,17.9,0,0,1,1.771-1.822,4.735,4.735,0,0,0,1.825-3.567A20.4,20.4,0,0,1,130.35,65.6c11.236-2.247,22.817,6.145,24.015,17.5a7.23,7.23,0,0,0,2.157,4.653c5.09,5.292,6.415,11.613,3.594,18.4-2.812,6.765-8.182,10.271-15.52,10.626-2.071.1-4.15.049-6.224,0-.737-.017-.978.165-.963.938.05,2.539.018,5.08.018,7.62,0,2.576-.018,5.152.012,7.728.008.654-.106.952-.861.927-1.715-.058-3.435-.052-5.15,0-.717.021-.889-.214-.886-.9.027-5.08,0-10.161.031-15.241.006-.821-.179-1.076-1.045-1.077-.744,0-1.489.014-2.233.029a38.687,38.687,0,0,1-5.807-.17,16.737,16.737,0,0,1-10.967-6.111c-.469-.56-.66-.589-1.148-.011A16.908,16.908,0,0,1,95.845,116.8c-.567,0-1.134,0-1.7.005-1.294.007-2.588.014-3.88-.024-.756-.022-.955.2-.95.95.034,5.08,0,10.16.036,15.241.005.729-.131,1.029-.853,1.029ZM130.53,72.594a13.469,13.469,0,0,0-10.2,13.762,4.45,4.45,0,0,1-2.247,4.731,10.072,10.072,0,0,0-4.478,10.685,10.239,10.239,0,0,0,8.3,7.968,28.342,28.342,0,0,0,5.236.2c.969-.022,1.938-.044,2.905-.011.578.02.5-.367.5-.719,0-1.145-.039-2.293.018-3.435a1.387,1.387,0,0,0-.738-1.383c-2.428-1.579-4.812-3.226-7.249-4.789-.694-.445-.721-.761-.254-1.405.984-1.361,1.9-2.771,2.795-4.194.346-.553.6-.636,1.151-.24,1.332.952,2.717,1.825,4.28,2.862,0-2.266.045-4.3-.021-6.338-.026-.833.24-1.018,1.022-.99,1.644.059,3.292.058,4.936,0,.754-.026.972.19.952.949-.054,2.058-.018,4.119-.018,6.384,1.558-1.035,2.963-1.934,4.327-2.89.5-.353.75-.3,1.075.216.941,1.478,1.9,2.945,2.92,4.368.442.615.257.888-.29,1.239-1.594,1.024-3.167,2.081-4.737,3.14-1.092.737-2.585,1.278-3.132,2.312s-.148,2.582-.164,3.9a1.811,1.811,0,0,1,0,.214c-.08.577.106.819.75.807.949-.018,1.9-.013,2.849-.008,1.269.007,2.538.013,3.8-.035a10.267,10.267,0,0,0,9.752-9.861,9.915,9.915,0,0,0-4.883-9.1,3.846,3.846,0,0,1-2.044-4.3,7.2,7.2,0,0,0,.032-1.925A13.713,13.713,0,0,0,130.53,72.594Zm-47.013-.24c-6.554,1.023-11.99,7.629-11.293,13.964a4.428,4.428,0,0,1-2.293,4.809,10.068,10.068,0,0,0-4.408,10.715,10.244,10.244,0,0,0,8.364,7.908,28.537,28.537,0,0,0,5.135.2c.968-.022,1.935-.043,2.9-.008.541.018.544-.3.541-.687-.008-1.18-.041-2.363.012-3.541a1.308,1.308,0,0,0-.708-1.288c-2.483-1.626-4.936-3.3-7.419-4.922-.488-.32-.619-.561-.252-1.086q1.535-2.2,2.973-4.463c.332-.522.581-.546,1.078-.2,1.362.955,2.766,1.849,4.315,2.873,0-2.27.022-4.334-.013-6.4-.012-.658.111-.95.863-.925,1.716.058,3.435.053,5.151,0,.719-.022.9.215.886.9-.042,2.068-.015,4.137-.015,6.432,1.569-1.044,2.956-1.922,4.289-2.874.559-.4.808-.3,1.15.248.893,1.422,1.813,2.832,2.8,4.193.465.643.451.972-.253,1.405-1.581.975-3.112,2.034-4.656,3.07-1.1.735-2.617,1.263-3.15,2.3-.558,1.08-.16,2.653-.179,4.011a1.813,1.813,0,0,1,0,.214c-.075.545.126.751.707.741.9-.015,1.808-.009,2.712,0,1.35.008,2.7.015,4.049-.042a10.264,10.264,0,0,0,9.685-9.816,9.993,9.993,0,0,0-5.026-9.235,3.646,3.646,0,0,1-1.908-4.054,7.519,7.519,0,0,0,.027-2.246A13.7,13.7,0,0,0,85.851,72.171,15.106,15.106,0,0,0,83.517,72.354Zm115.219,53.4c-1.117-.374-2.226-.776-3.354-1.114-.541-.162-.629-.374-.456-.914.534-1.665,1.013-3.349,1.474-5.035.133-.483.291-.624.811-.481,1.756.482,3.527.9,5.292,1.351.3.076.68.068.607.715-.325,1.147-.683,2.455-1.067,3.756-.483,1.634-.662,2.231-1.377,2.231A7.5,7.5,0,0,1,198.736,125.752Zm-180.9-1.729c-.478-1.832-.99-3.654-1.472-5.485-.088-.333-.214-.729.323-.851q2.667-.6,5.332-1.207l.147-.036c.633-.131.767.035.855.37.462,1.762.946,3.518,1.432,5.274.122.439-.025.634-.466.765-1.779.529-3.551,1.092-5.319,1.659a1.054,1.054,0,0,1-.316.058C18.078,124.569,17.932,124.388,17.838,124.023Zm4.33-7.579-.041.009C22.229,116.427,22.221,116.43,22.168,116.444Zm181.849-3.775c-1.752-.343-3.5-.7-5.272-.936-.794-.108-.784-.447-.677-1.066.23-1.337.415-2.683.572-4.031.181-1.546.161-1.549,2.386-1.392.866.087,2.392.263,3.924.383.555.043.739.2.651.786-.283,1.872-.527,3.749-.756,5.628-.054.447-.192.658-.555.658A1.442,1.442,0,0,1,204.017,112.668ZM14.783,110.163c-.214-1.768-.447-3.534-.721-5.677-.245-.651.275-.807,1.16-.839,1.6-.059,3.2-.212,4.795-.389.71-.078.933.19.993.849.152,1.667.332,3.333.551,4.993.068.506-.056.723-.552.8-1.868.273-3.736.551-5.6.856a1.1,1.1,0,0,1-.176.016C14.87,110.766,14.825,110.513,14.783,110.163Zm190.6-11.583c-1.783-.067-3.567-.113-5.352-.129-.584-.006-.8-.181-.792-.8.025-1.712-.005-3.426-.049-5.139-.013-.5.143-.721.646-.743,1.854-.08,3.708-.161,5.56-.278.57-.036.664.262.664.7v2.89h.064c0,.928-.026,1.857.01,2.783.021.543-.181.715-.663.715Zm-191.634-2.6c.02-.964.006-1.929.006-2.442.084-1.415.168-2.379.189-3.342.011-.5.157-.7.681-.661q2.832.228,5.666.4c.416.026.551.186.533.591-.078,1.856-.147,3.713-.194,5.569-.012.452-.233.521-.607.52-1.894-.009-3.788-.016-5.682,0h-.018C13.848,96.621,13.74,96.406,13.749,95.976ZM198.507,84.594c-.295-1.793-.567-3.59-.873-5.382-.074-.429.078-.561.472-.635,1.856-.348,3.708-.72,5.561-1.087.336-.067.647-.115.725.355q.492,3.008.995,6.014c.067.47-.219.555-.578.6-1.912.233-3.823.464-5.732.716a.893.893,0,0,1-.116.008C198.578,85.182,198.553,84.877,198.507,84.594ZM20.89,83.3c-1.863-.273-3.656-.565-5.458-.786-.6-.073-.694-.331-.6-.835.355-1.889.713-3.778,1.038-5.672.084-.489.3-.56.73-.463q2.76.62,5.529,1.2c.451.094.54.313.455.752-.333,1.749-.64,3.5-.935,5.257-.069.412-.259.575-.531.575A.94.94,0,0,1,20.89,83.3ZM195.816,71.585c-.478-1.643-.991-3.276-1.558-4.889-.207-.588-.088-.811.48-1,1.689-.569,3.363-1.18,5.036-1.794.4-.147.731-.286.909.283.593,1.905,1.2,3.806,1.806,5.708.022.067.029.139.064.312.051.32-.29.339-.548.412-1.75.492-3.5.969-5.252,1.466a1.383,1.383,0,0,1-.369.063C196.111,72.144,195.935,71.995,195.816,71.585ZM23.66,70.278c-1.722-.573-3.471-1.066-5.217-1.565-.462-.131-.657-.276-.465-.81.663-1.842,1.271-3.7,1.912-5.554.074-.214.091-.528.49-.473.1.041.236.1.369.147,1.7.647,3.387,1.312,5.094,1.933.515.187.637.389.436.934-.59,1.6-1.125,3.228-1.65,4.854-.127.392-.252.613-.57.613A1.293,1.293,0,0,1,23.66,70.278ZM191.284,59.26c-.759-1.61-1.539-3.211-2.359-4.79-.257-.494-.1-.675.321-.895,1.638-.864,3.262-1.755,4.891-2.634.279-.151.548-.357.77.1.9,1.858,1.816,3.709,2.726,5.563.032.064.059.13.088.2.055.351-.243.4-.453.49-1.688.758-3.386,1.5-5.07,2.266a1.083,1.083,0,0,1-.429.123C191.574,59.681,191.426,59.561,191.284,59.26ZM27.406,54.965a27.482,27.482,0,1,1,.09,0Zm-3.3-20.6a3.4,3.4,0,0,0-3.479,3.45c-.027,1.356-.005,2.714-.007,4.071,0,1.429.026,2.858-.012,4.286a.848.848,0,0,0,.726.969,20.333,20.333,0,0,0,12.327-.006.853.853,0,0,0,.711-.978c-.026-2.786.012-5.572-.023-8.358a3.4,3.4,0,0,0-3.493-3.436q-1.675-.019-3.351-.02Q25.81,34.341,24.11,34.362ZM12.758,13.1a20.492,20.492,0,0,0,1,29.632c0-1.806-.022-3.4,0-5A9.946,9.946,0,0,1,17.7,29.748a1.1,1.1,0,0,0,.407-1.617,9.653,9.653,0,0,1,1.638-10.805,9.741,9.741,0,0,1,10.68-3.134,10.188,10.188,0,0,1,6.4,14.1c-.214.472-.425.792.174,1.237a10.156,10.156,0,0,1,4.243,8.807c-.025,1.409,0,2.817,0,4.348A20.543,20.543,0,1,0,12.758,13.1Zm14.729,7.514a3.433,3.433,0,1,0,.006,0ZM184.93,47.673c-.991-1.485-2.018-2.948-3.041-4.41-.207-.3-.334-.518.044-.795,1.582-1.165,3.148-2.352,4.723-3.528a2.544,2.544,0,0,1,.27-.154c.267,0,.372.212.49.382,1.1,1.584,2.181,3.182,3.3,4.751.349.488.21.715-.243,1q-2.322,1.439-4.6,2.942a.872.872,0,0,1-.452.179C185.243,48.035,185.1,47.921,184.93,47.673Zm-7.961-10.51c-1.207-1.316-2.422-2.625-3.662-3.91-.352-.366-.355-.585.013-.945,1.33-1.3,2.625-2.628,3.937-3.943.215-.217.4-.525.761-.138,1.409,1.519,2.833,3.022,4.248,4.536a3.532,3.532,0,0,1,.285.437c-.157.114-.309.207-.442.323-1.432,1.239-2.872,2.467-4.282,3.73a.637.637,0,0,1-.4.205C177.268,37.459,177.134,37.344,176.968,37.164Zm-9.507-9.288c-1.369-1.142-2.778-2.238-4.184-3.336-.3-.231-.442-.392-.161-.765,1.181-1.567,2.333-3.156,3.5-4.738.084-.114.162-.234.251-.363.225.157.372.25.508.357,1.514,1.193,3.011,2.405,4.546,3.571.52.395.427.661.052,1.084q-1.775,2-3.487,4.062c-.192.229-.35.364-.536.364A.8.8,0,0,1,167.461,27.876Zm-10.8-7.8c-1.415-.895-2.887-1.7-4.349-2.519-.462-.259-.7-.453-.363-1.045.9-1.581,1.72-3.2,2.552-4.821.213-.415.4-.611.886-.318,1.683,1.005,3.391,1.972,5.087,2.955.178.1.392.18.415.463-.1.168-.193.359-.306.538-.929,1.481-1.881,2.948-2.78,4.446-.2.329-.36.51-.6.51A1.084,1.084,0,0,1,156.657,20.074Zm-93.912-.6q-1.4-2.346-2.865-4.655c-.279-.439-.233-.663.22-.913,1.719-.95,3.424-1.925,5.13-2.9.338-.192.555-.193.758.208.872,1.72,1.774,3.425,2.663,5.136a2.823,2.823,0,0,1,.115.289c.037.349-.257.4-.457.518-1.521.867-3.06,1.7-4.561,2.6a.936.936,0,0,1-.46.164C63.069,19.924,62.917,19.764,62.745,19.478Zm82.265-5.445c-1.6-.688-3.238-1.306-4.872-1.922-.442-.166-.641-.311-.445-.839.653-1.772,1.246-3.565,1.88-5.344.071-.2.089-.538.471-.419a3.517,3.517,0,0,1,.413.111c1.756.693,3.508,1.4,5.269,2.079.47.182.689.349.425.916-.767,1.647-1.476,3.322-2.193,4.992-.14.326-.271.528-.543.528A1.06,1.06,0,0,1,145.01,14.032Zm-70.363-.559c-.738-1.736-1.491-3.467-2.228-5.2-.1-.246-.292-.555.118-.717q2.977-1.179,5.96-2.345c.381-.047.439.229.518.459.625,1.817,1.241,3.638,1.871,5.454.134.385.026.576-.36.72-1.733.649-3.461,1.312-5.18,2a.746.746,0,0,1-.273.063C74.844,13.905,74.752,13.721,74.647,13.473Zm57.929-3.7c-1.731-.434-3.476-.814-5.22-1.193-.428-.092-.667-.244-.545-.576.386-2,.763-3.859,1.091-5.723.1-.549.338-.59.808-.478q2.708.646,5.43,1.235c.6.131.826.358.625,1.028-.512,1.709-.955,3.439-1.4,5.167-.093.36-.187.579-.508.579A1.17,1.17,0,0,1,132.575,9.778ZM87.21,9.1c-.465-1.8-.9-3.6-1.406-5.389-.154-.547.029-.677.5-.777q2.776-.59,5.539-1.237c.594-.141.824.033.921.637.281,1.763.615,3.518.936,5.276.064.349.243.689-.33.806-1.852.381-3.7.793-5.548,1.193a.649.649,0,0,1-.194.034C87.348,9.642,87.279,9.367,87.21,9.1ZM119.6,7.394q-2.617-.235-5.241-.392c-.585-.035-.794-.241-.756-.846.1-1.677.205-3.359.2-5.039,0-.9.323-1.138,1.137-.969a5.844,5.844,0,0,0,.856.055c0-.014,0-.028,0-.043,1.425.121,2.848.264,4.275.356.676.043.919.29.823.992-.244,1.77-.442,3.548-.624,5.326-.042.409-.163.568-.523.568C119.7,7.4,119.655,7.4,119.6,7.394Zm-19.313-.7c-.171-1.849-.371-3.7-.586-5.542-.055-.473.119-.653.565-.682,1.961-.131,3.922-.263,5.881-.414.5-.038.6.211.612.634.027.965.084,1.928.135,3.047-.039.912.485,2.269-.115,2.965-.42.488-1.227.445-2.034.4a7.926,7.926,0,0,0-1.034-.011c-.889.073-1.781.135-2.67.225a1.564,1.564,0,0,1-.157.009C100.513,7.322,100.333,7.148,100.291,6.689Z" transform="translate(0.497 0.5)" stroke="rgba(0,0,0,0)" stroke-width="1" fill="url(#linear-gradient)"/>
</svg>
