<svg id="Group_2179" data-name="Group 2179" xmlns="http://www.w3.org/2000/svg" xmlns:xlink="http://www.w3.org/1999/xlink" width="170.773" height="204.924" viewBox="0 0 170.773 204.924">
  <defs>
    <linearGradient id="linear-gradient" x1="0.5" x2="0.5" y2="1" gradientUnits="objectBoundingBox">
      <stop offset="0" stop-color="#acd17b"/>
      <stop offset="1" stop-color="#66b476"/>
    </linearGradient>
    <clipPath id="clip-path">
      <rect id="Rectangle_260" data-name="Rectangle 260" width="170.773" height="204.924" fill="url(#linear-gradient)"/>
    </clipPath>
  </defs>
  <g id="Group_2178" data-name="Group 2178" transform="translate(0 0)" clip-path="url(#clip-path)">
    <path id="Path_2741" data-name="Path 2741" d="M81.152,170.766v-1.213q0-23.414.015-46.827a1.817,1.817,0,0,0-.81-1.659q-15.707-11.73-31.388-23.495a4.6,4.6,0,0,1-2-4C47,85.435,46.966,77.3,47,69.16a1.465,1.465,0,0,0-1.145-1.692A17.222,17.222,0,0,1,34.186,50.484c.256-8.291,7.225-15.642,15.4-16.25a17.136,17.136,0,0,1,6.627,33.447c-.479.154-.689.347-.689.889q.027,11.308.01,22.613a1.029,1.029,0,0,0,.418.939q12.413,9.287,24.814,18.59a.959.959,0,0,0,.276.084,2.052,2.052,0,0,0,.1-1.089q.011-37.422.023-74.842a1.286,1.286,0,0,0-1.018-1.486,17.026,17.026,0,1,1,10.448.071,1.126,1.126,0,0,0-.957,1.307q.03,46.079.018,92.153v.869c.436.147.62-.154.836-.317q12.049-9.021,24.095-18.048a1.549,1.549,0,0,0,.7-1.41q-.03-11.057.005-22.112a1.11,1.11,0,0,0-.914-1.253,17.334,17.334,0,0,1-11.9-16.746A17.093,17.093,0,1,1,124.741,84.68c-.76.23-.934.565-.932,1.314.03,8.169,0,16.341.035,24.513a4.846,4.846,0,0,1-2.127,4.242c-10.428,7.769-20.813,15.591-31.228,23.373a1.91,1.91,0,0,0-.848,1.74q.034,25.264.023,50.53a1.777,1.777,0,0,0,.172,1.162c1.727-1.39,3.434-2.755,5.133-4.128q26.855-21.674,53.718-43.338a1.793,1.793,0,0,0,.775-1.583q-.061-4.851,0-9.7a1.02,1.02,0,0,0-.856-1.175,17.114,17.114,0,1,1,10.534-.129,1.478,1.478,0,0,0-1.162,1.694c.056,3.7-.02,7.4.038,11.107a5.589,5.589,0,0,1-2.231,4.677q-16.573,13.469-33.148,26.936-17,13.815-34.006,27.627a4.91,4.91,0,0,1-4.145,1.3,3.821,3.821,0,0,1-3.3-3.821c-.061-2.434-.028-4.87-.03-7.3,0-3.738-.025-7.473.02-11.208a1.907,1.907,0,0,0-.886-1.727q-32.739-24.523-65.468-49.058a4.617,4.617,0,0,1-2.013-4c.018-3.9-.02-7.8.028-11.707a1.344,1.344,0,0,0-1.069-1.562,17.095,17.095,0,0,1,2.018-33.009,17.133,17.133,0,0,1,8.346,33.181c-.59.177-.782.405-.777,1.015.03,3.135.038,6.27,0,9.4a1.619,1.619,0,0,0,.765,1.469q28.139,21.074,56.26,42.175c.851.638,1.7,1.271,2.778,2.071M128.073,68.309a8.525,8.525,0,0,0-17.05.005,8.525,8.525,0,1,0,17.05-.005M25.611,98.178a8.524,8.524,0,1,0-8.5,8.534,8.529,8.529,0,0,0,8.5-8.534M42.737,51.188a8.524,8.524,0,1,0,8.564-8.5,8.56,8.56,0,0,0-8.564,8.5M145.2,115.3a8.524,8.524,0,1,0,8.488-8.574A8.567,8.567,0,0,0,145.2,115.3M85.412,8.567a8.524,8.524,0,1,0,8.539,8.521,8.567,8.567,0,0,0-8.539-8.521" transform="translate(0 0)" fill="url(#linear-gradient)"/>
  </g>
</svg>
