<svg xmlns="http://www.w3.org/2000/svg" xmlns:xlink="http://www.w3.org/1999/xlink" width="151.998" height="202.387" viewBox="0 0 151.998 202.387">
  <defs>
    <linearGradient id="linear-gradient" x1="0.5" x2="0.5" y2="1" gradientUnits="objectBoundingBox">
      <stop offset="0" stop-color="#abd07b"/>
      <stop offset="1" stop-color="#68b576"/>
    </linearGradient>
  </defs>
  <path id="Union_9" data-name="Union 9" d="M144.017,201.368a1.6,1.6,0,0,1-1.717-1.707c-.032-.492-.023-.988-.023-1.481q.005-29.014.011-58.028v-1.319c-1.9,1.084-3.671,2.084-5.432,3.095q-16.084,9.234-32.155,18.491c-.879.508-1.085.351-1.087-.584-.014-4.9-.049-9.8-.07-14.7-.009-2.079,0-4.159,0-6.448-2.023,1.157-3.89,2.219-5.752,3.291q-15.085,8.688-30.171,17.379c-1.775,1.022-2.611.525-2.612-1.537,0-6.269,0-12.538,0-18.776-.338-.265-.538,0-.743.123Q46.869,149.2,29.482,159.249c-.066.039-.131.077-.195.118-.7.444-1.379,1.114-2.273.663-1.018-.515-.77-1.54-.77-2.434q0-33.916.026-67.833c0-1.089-.332-1.284-1.332-1.274-3.275.031-6.551.024-9.826.016q-2.5-.005-4.994-.005c-.166,0-.312,0-.441,0-1.122-.019-.987-.039-.987,1.486q0,53.411.011,106.821c0,1.026.006,2.051-.009,3.078a1.326,1.326,0,0,1-1.47,1.488c-1.786.006-3.572.031-5.358.007a1.693,1.693,0,0,1-1.843-1.848c-.021-.379-.014-.76-.014-1.14Q0,140.874,0,83.358c0-.38,0-.76,0-1.14.034-1.77.637-2.4,2.406-2.4q14.194-.008,28.388.012c.836,0,1.671-.012,2.508,0,1.149.018,1.593.452,1.61,1.571.016.95.017,1.9.017,2.849q0,30.1,0,60.195v1.613l38.726-22.373V145.6a2.332,2.332,0,0,0,1.376-.555q17.7-10.181,35.4-20.37c1.167-.671,1.431-.534,1.718.771a5.373,5.373,0,0,1,.064,1.134q.005,9.12,0,18.24V146c.953-.53,1.772-.974,2.579-1.438q16.675-9.577,33.347-19.158c.689-.4,1.433-1.014,2.2-.6.851.462.611,1.462.612,2.283q.011,35.569.019,71.139a9.871,9.871,0,0,1-.032,1.479,1.708,1.708,0,0,1-1.81,1.664c-.974,0-1.948.009-2.922.009C145.489,201.388,144.753,201.383,144.017,201.368Zm-66.3-20.93c-1.545-.016-2.02-.517-2.033-2.072-.013-1.519-.016-3.039,0-4.558.016-1.482.541-2.044,2.086-2.069,1.345-.022,2.691-.009,4.037,0,.856.009,1.714.017,2.57.017,2.355,0,4.71-.037,7.065-.032,1.789,0,2.314.54,2.316,2.295,0,1.519.02,3.039,0,4.558-.019,1.254-.538,1.823-1.8,1.843-2.43.039-4.861.011-7.293.011v.008c-1.39,0-2.781.006-4.171.006Q79.107,180.45,77.717,180.438Zm38.588,0c-1.408-.014-1.893-.524-1.911-1.957-.02-1.519-.016-3.04,0-4.558.021-1.656.573-2.187,2.329-2.19,3.456-.006,6.913.024,10.369.031.467,0,.933-.009,1.4-.018.673-.013,1.345-.027,2.017-.009,1.459.038,1.989.6,2,2.021q.012,2.336,0,4.672c-.009,1.5-.488,2-1.964,2.009-1.6.011-3.192.009-4.788.007q-1.137,0-2.274,0c-1.423,0-2.846.008-4.269.008Q117.76,180.449,116.3,180.435Zm-77.571,0c-1.266-.015-1.756-.539-1.777-1.836-.025-1.633-.025-3.267-.011-4.9.011-1.325.489-1.863,1.841-1.94.719-.041,1.441-.026,2.164-.011.4.009.793.016,1.189.016,3.495-.009,6.989-.033,10.483-.034,1.909,0,2.4.517,2.4,2.446,0,1.443.012,2.887-.022,4.33-.035,1.494-.5,1.929-2.02,1.937-2.354.014-4.707,0-7.062,0q-1.1,0-2.2,0l-1.97,0Q40.24,180.448,38.734,180.433ZM17.32,72.062c-2.083-1.541-2.393-4.021-.737-6.341A74.084,74.084,0,0,1,29.665,52.128a28.475,28.475,0,0,1,2.487-1.992c.7-.459.73-.848.393-1.57a35.015,35.015,0,0,1-3.371-12.919C28.478,23.5,33.254,14.128,43.391,7.44A45.538,45.538,0,0,1,65.446.257C68.329.034,71.214-.022,74.1.007A198.658,198.658,0,0,1,100.378,2.63q8.994,1.435,17.861,3.534c1.76.415,2.23,1.281,1.492,2.891-6.67,14.556-14.149,28.656-23.618,41.623C91.646,56.8,86.408,62.069,79.561,65.526c-14.266,7.2-29.747,5.06-40.985-7.732-.727-.829-1.142-.862-1.965-.176A77.836,77.836,0,0,0,23.523,70.891a4.641,4.641,0,0,1-3.7,2.018A4.178,4.178,0,0,1,17.32,72.062ZM62.508,41.077A198.1,198.1,0,0,0,45.294,51.308c-.462.31-.554.494-.152.924,6.469,6.9,14.224,10.114,23.7,8.062,6.913-1.5,12.446-5.387,16.934-10.7,9.208-10.9,15.86-23.4,22.236-36.061.267-.529.143-.655-.441-.775-4.052-.829-8.132-1.484-12.221-2.094A150.268,150.268,0,0,0,68.8,8.727a41.306,41.306,0,0,0-17.265,4.052C39.15,18.868,34.645,30.584,39.728,43.4c.3.77.54.861,1.25.384q3.306-2.218,6.716-4.28a2.14,2.14,0,0,0,1.152-1.975c.238-4.4.525-8.793.91-13.179a4.288,4.288,0,0,1,6.549-3.441c1.915,1.145,2.234,3.013,2.046,5.064-.232,2.526-.425,5.056-.649,7.755,1.36-.682,2.573-1.28,3.779-1.895A241.822,241.822,0,0,1,84.257,21.5a4.413,4.413,0,0,1,5.247,1.26,4.367,4.367,0,0,1-2.06,6.808c-2.633,1.075-5.262,2.16-7.874,3.288-2.107.91-4.183,1.89-6.247,2.827.086.421.361.436.544.525,1.568.76,3.164,1.466,4.719,2.25a4.271,4.271,0,0,1,2.546,4.308c-.441,3.264-3.342,4.836-6.443,3.425-3.622-1.647-7.213-3.36-10.812-5.054a1.82,1.82,0,0,0-.776-.224A1.238,1.238,0,0,0,62.508,41.077Z" transform="translate(0.5 0.5)" stroke="rgba(0,0,0,0)" stroke-width="1" fill="url(#linear-gradient)"/>
</svg>
